solid OpenSCAD_Model
  facet normal 0.568064 -0.822984 0
    outer loop
      vertex 3.00596 8.65249 0
      vertex 4.58158 9.74006 3
      vertex 3.00596 8.65249 3
    endloop
  endfacet
  facet normal 0.568064 -0.822984 0
    outer loop
      vertex 4.58158 9.74006 3
      vertex 3.00596 8.65249 0
      vertex 4.58158 9.74006 0
    endloop
  endfacet
  facet normal -0.748511 -0.663122 0
    outer loop
      vertex 9.54182 7.85889 0
      vertex 8.27226 9.29193 3
      vertex 8.27226 9.29193 0
    endloop
  endfacet
  facet normal -0.748511 -0.663122 0
    outer loop
      vertex 8.27226 9.29193 3
      vertex 9.54182 7.85889 0
      vertex 9.54182 7.85889 3
    endloop
  endfacet
  facet normal -0.970941 -0.239318 0
    outer loop
      vertex 10 6 0
      vertex 9.54182 7.85889 3
      vertex 9.54182 7.85889 0
    endloop
  endfacet
  facet normal -0.970941 -0.239318 0
    outer loop
      vertex 9.54182 7.85889 3
      vertex 10 6 0
      vertex 10 6 3
    endloop
  endfacet
  facet normal 1 -0 0
    outer loop
      vertex 2.11623 5.04274 3
      vertex 2.11623 6.95726 0
      vertex 2.11623 6.95726 3
    endloop
  endfacet
  facet normal 1 0 0
    outer loop
      vertex 2.11623 6.95726 0
      vertex 2.11623 5.04274 3
      vertex 2.11623 5.04274 0
    endloop
  endfacet
  facet normal 0.885455 -0.464725 0
    outer loop
      vertex 2.11623 6.95726 3
      vertex 3.00596 8.65249 0
      vertex 3.00596 8.65249 3
    endloop
  endfacet
  facet normal 0.885455 -0.464725 0
    outer loop
      vertex 3.00596 8.65249 0
      vertex 2.11623 6.95726 3
      vertex 2.11623 6.95726 0
    endloop
  endfacet
  facet normal -0.354605 -0.935016 0
    outer loop
      vertex 6.48215 9.97083 0
      vertex 8.27226 9.29193 3
      vertex 6.48215 9.97083 3
    endloop
  endfacet
  facet normal -0.354605 -0.935016 -0
    outer loop
      vertex 8.27226 9.29193 3
      vertex 6.48215 9.97083 0
      vertex 8.27226 9.29193 0
    endloop
  endfacet
  facet normal -0.970941 0.239318 0
    outer loop
      vertex 9.54182 4.14111 0
      vertex 10 6 3
      vertex 10 6 0
    endloop
  endfacet
  facet normal -0.970941 0.239318 0
    outer loop
      vertex 10 6 3
      vertex 9.54182 4.14111 0
      vertex 9.54182 4.14111 3
    endloop
  endfacet
  facet normal 0.120536 0.992709 -0
    outer loop
      vertex 6.48215 2.02916 0
      vertex 4.58158 2.25993 3
      vertex 6.48215 2.02916 3
    endloop
  endfacet
  facet normal 0.120536 0.992709 0
    outer loop
      vertex 4.58158 2.25993 3
      vertex 6.48215 2.02916 0
      vertex 4.58158 2.25993 0
    endloop
  endfacet
  facet normal -0.748514 0.663119 0
    outer loop
      vertex 8.27226 2.70806 0
      vertex 9.54182 4.14111 3
      vertex 9.54182 4.14111 0
    endloop
  endfacet
  facet normal -0.748514 0.663119 0
    outer loop
      vertex 9.54182 4.14111 3
      vertex 8.27226 2.70806 0
      vertex 8.27226 2.70806 3
    endloop
  endfacet
  facet normal -0.354605 0.935016 0
    outer loop
      vertex 8.27226 2.70806 0
      vertex 6.48215 2.02916 3
      vertex 8.27226 2.70806 3
    endloop
  endfacet
  facet normal -0.354605 0.935016 0
    outer loop
      vertex 6.48215 2.02916 3
      vertex 8.27226 2.70806 0
      vertex 6.48215 2.02916 0
    endloop
  endfacet
  facet normal 0.120536 -0.992709 0
    outer loop
      vertex 4.58158 9.74006 0
      vertex 6.48215 9.97083 3
      vertex 4.58158 9.74006 3
    endloop
  endfacet
  facet normal 0.120536 -0.992709 0
    outer loop
      vertex 6.48215 9.97083 3
      vertex 4.58158 9.74006 0
      vertex 6.48215 9.97083 0
    endloop
  endfacet
  facet normal 0.568068 0.822982 -0
    outer loop
      vertex 4.58158 2.25993 0
      vertex 3.00596 3.34751 3
      vertex 4.58158 2.25993 3
    endloop
  endfacet
  facet normal 0.568068 0.822982 0
    outer loop
      vertex 3.00596 3.34751 3
      vertex 4.58158 2.25993 0
      vertex 3.00596 3.34751 0
    endloop
  endfacet
  facet normal 0.885455 0.464725 0
    outer loop
      vertex 3.00596 3.34751 3
      vertex 2.11623 5.04274 0
      vertex 2.11623 5.04274 3
    endloop
  endfacet
  facet normal 0.885455 0.464725 0
    outer loop
      vertex 2.11623 5.04274 0
      vertex 3.00596 3.34751 3
      vertex 3.00596 3.34751 0
    endloop
  endfacet
  facet normal 0.568075 -0.822977 0
    outer loop
      vertex 3.00596 88.6525 0
      vertex 4.58158 89.7401 3
      vertex 3.00596 88.6525 3
    endloop
  endfacet
  facet normal 0.568075 -0.822977 0
    outer loop
      vertex 4.58158 89.7401 3
      vertex 3.00596 88.6525 0
      vertex 4.58158 89.7401 0
    endloop
  endfacet
  facet normal -0.748502 -0.663132 0
    outer loop
      vertex 9.54182 87.8589 0
      vertex 8.27226 89.2919 3
      vertex 8.27226 89.2919 0
    endloop
  endfacet
  facet normal -0.748502 -0.663132 0
    outer loop
      vertex 8.27226 89.2919 3
      vertex 9.54182 87.8589 0
      vertex 9.54182 87.8589 3
    endloop
  endfacet
  facet normal -0.970942 -0.239317 0
    outer loop
      vertex 10 86 0
      vertex 9.54182 87.8589 3
      vertex 9.54182 87.8589 0
    endloop
  endfacet
  facet normal -0.970942 -0.239317 0
    outer loop
      vertex 9.54182 87.8589 3
      vertex 10 86 0
      vertex 10 86 3
    endloop
  endfacet
  facet normal -0.748502 0.663132 0
    outer loop
      vertex 8.27226 82.7081 0
      vertex 9.54182 84.1411 3
      vertex 9.54182 84.1411 0
    endloop
  endfacet
  facet normal -0.748502 0.663132 0
    outer loop
      vertex 9.54182 84.1411 3
      vertex 8.27226 82.7081 0
      vertex 8.27226 82.7081 3
    endloop
  endfacet
  facet normal 0.885452 0.464732 0
    outer loop
      vertex 3.00596 83.3475 3
      vertex 2.11623 85.0427 0
      vertex 2.11623 85.0427 3
    endloop
  endfacet
  facet normal 0.885452 0.464732 0
    outer loop
      vertex 2.11623 85.0427 0
      vertex 3.00596 83.3475 3
      vertex 3.00596 83.3475 0
    endloop
  endfacet
  facet normal -0.970942 0.239317 0
    outer loop
      vertex 9.54182 84.1411 0
      vertex 10 86 3
      vertex 10 86 0
    endloop
  endfacet
  facet normal -0.970942 0.239317 0
    outer loop
      vertex 10 86 3
      vertex 9.54182 84.1411 0
      vertex 9.54182 84.1411 3
    endloop
  endfacet
  facet normal -0.354605 -0.935016 0
    outer loop
      vertex 6.48215 89.9708 0
      vertex 8.27226 89.2919 3
      vertex 6.48215 89.9708 3
    endloop
  endfacet
  facet normal -0.354605 -0.935016 -0
    outer loop
      vertex 8.27226 89.2919 3
      vertex 6.48215 89.9708 0
      vertex 8.27226 89.2919 0
    endloop
  endfacet
  facet normal -0.354605 0.935016 0
    outer loop
      vertex 8.27226 82.7081 0
      vertex 6.48215 82.0292 3
      vertex 8.27226 82.7081 3
    endloop
  endfacet
  facet normal -0.354605 0.935016 0
    outer loop
      vertex 6.48215 82.0292 3
      vertex 8.27226 82.7081 0
      vertex 6.48215 82.0292 0
    endloop
  endfacet
  facet normal 0.885452 -0.464732 0
    outer loop
      vertex 2.11623 86.9573 3
      vertex 3.00596 88.6525 0
      vertex 3.00596 88.6525 3
    endloop
  endfacet
  facet normal 0.885452 -0.464732 0
    outer loop
      vertex 3.00596 88.6525 0
      vertex 2.11623 86.9573 3
      vertex 2.11623 86.9573 0
    endloop
  endfacet
  facet normal 0.1205 -0.992713 0
    outer loop
      vertex 4.58158 89.7401 0
      vertex 6.48215 89.9708 3
      vertex 4.58158 89.7401 3
    endloop
  endfacet
  facet normal 0.1205 -0.992713 0
    outer loop
      vertex 6.48215 89.9708 3
      vertex 4.58158 89.7401 0
      vertex 6.48215 89.9708 0
    endloop
  endfacet
  facet normal 0.1205 0.992713 -0
    outer loop
      vertex 6.48215 82.0292 0
      vertex 4.58158 82.2599 3
      vertex 6.48215 82.0292 3
    endloop
  endfacet
  facet normal 0.1205 0.992713 0
    outer loop
      vertex 4.58158 82.2599 3
      vertex 6.48215 82.0292 0
      vertex 4.58158 82.2599 0
    endloop
  endfacet
  facet normal 0.568075 0.822977 -0
    outer loop
      vertex 4.58158 82.2599 0
      vertex 3.00596 83.3475 3
      vertex 4.58158 82.2599 3
    endloop
  endfacet
  facet normal 0.568075 0.822977 0
    outer loop
      vertex 3.00596 83.3475 3
      vertex 4.58158 82.2599 0
      vertex 3.00596 83.3475 0
    endloop
  endfacet
  facet normal 1 -0 0
    outer loop
      vertex 2.11623 85.0427 3
      vertex 2.11623 86.9573 0
      vertex 2.11623 86.9573 3
    endloop
  endfacet
  facet normal 1 0 0
    outer loop
      vertex 2.11623 86.9573 0
      vertex 2.11623 85.0427 3
      vertex 2.11623 85.0427 0
    endloop
  endfacet
  facet normal 0.568069 -0.822981 0
    outer loop
      vertex 83.006 8.65249 0
      vertex 84.5816 9.74006 3
      vertex 83.006 8.65249 3
    endloop
  endfacet
  facet normal 0.568069 -0.822981 0
    outer loop
      vertex 84.5816 9.74006 3
      vertex 83.006 8.65249 0
      vertex 84.5816 9.74006 0
    endloop
  endfacet
  facet normal -0.748527 -0.663104 0
    outer loop
      vertex 89.5418 7.85889 0
      vertex 88.2723 9.29193 3
      vertex 88.2723 9.29193 0
    endloop
  endfacet
  facet normal -0.748527 -0.663104 0
    outer loop
      vertex 88.2723 9.29193 3
      vertex 89.5418 7.85889 0
      vertex 89.5418 7.85889 3
    endloop
  endfacet
  facet normal -0.970939 -0.239328 0
    outer loop
      vertex 90 6 0
      vertex 89.5418 7.85889 3
      vertex 89.5418 7.85889 0
    endloop
  endfacet
  facet normal -0.970939 -0.239328 0
    outer loop
      vertex 89.5418 7.85889 3
      vertex 90 6 0
      vertex 90 6 3
    endloop
  endfacet
  facet normal 1 -0 0
    outer loop
      vertex 82.1162 5.04274 3
      vertex 82.1162 6.95726 0
      vertex 82.1162 6.95726 3
    endloop
  endfacet
  facet normal 1 0 0
    outer loop
      vertex 82.1162 6.95726 0
      vertex 82.1162 5.04274 3
      vertex 82.1162 5.04274 0
    endloop
  endfacet
  facet normal 0.88544 -0.464754 0
    outer loop
      vertex 82.1162 6.95726 3
      vertex 83.006 8.65249 0
      vertex 83.006 8.65249 3
    endloop
  endfacet
  facet normal 0.88544 -0.464754 0
    outer loop
      vertex 83.006 8.65249 0
      vertex 82.1162 6.95726 3
      vertex 82.1162 6.95726 0
    endloop
  endfacet
  facet normal -0.35459 -0.935022 0
    outer loop
      vertex 86.4821 9.97083 0
      vertex 88.2723 9.29193 3
      vertex 86.4821 9.97083 3
    endloop
  endfacet
  facet normal -0.35459 -0.935022 -0
    outer loop
      vertex 88.2723 9.29193 3
      vertex 86.4821 9.97083 0
      vertex 88.2723 9.29193 0
    endloop
  endfacet
  facet normal -0.970939 0.239328 0
    outer loop
      vertex 89.5418 4.14111 0
      vertex 90 6 3
      vertex 90 6 0
    endloop
  endfacet
  facet normal -0.970939 0.239328 0
    outer loop
      vertex 90 6 3
      vertex 89.5418 4.14111 0
      vertex 89.5418 4.14111 3
    endloop
  endfacet
  facet normal 0.120541 0.992708 -0
    outer loop
      vertex 86.4821 2.02916 0
      vertex 84.5816 2.25993 3
      vertex 86.4821 2.02916 3
    endloop
  endfacet
  facet normal 0.120541 0.992708 0
    outer loop
      vertex 84.5816 2.25993 3
      vertex 86.4821 2.02916 0
      vertex 84.5816 2.25993 0
    endloop
  endfacet
  facet normal -0.748529 0.663102 0
    outer loop
      vertex 88.2723 2.70806 0
      vertex 89.5418 4.14111 3
      vertex 89.5418 4.14111 0
    endloop
  endfacet
  facet normal -0.748529 0.663102 0
    outer loop
      vertex 89.5418 4.14111 3
      vertex 88.2723 2.70806 0
      vertex 88.2723 2.70806 3
    endloop
  endfacet
  facet normal -0.35459 0.935022 0
    outer loop
      vertex 88.2723 2.70806 0
      vertex 86.4821 2.02916 3
      vertex 88.2723 2.70806 3
    endloop
  endfacet
  facet normal -0.35459 0.935022 0
    outer loop
      vertex 86.4821 2.02916 3
      vertex 88.2723 2.70806 0
      vertex 86.4821 2.02916 0
    endloop
  endfacet
  facet normal 0.120541 -0.992708 0
    outer loop
      vertex 84.5816 9.74006 0
      vertex 86.4821 9.97083 3
      vertex 84.5816 9.74006 3
    endloop
  endfacet
  facet normal 0.120541 -0.992708 0
    outer loop
      vertex 86.4821 9.97083 3
      vertex 84.5816 9.74006 0
      vertex 86.4821 9.97083 0
    endloop
  endfacet
  facet normal 0.568072 0.822979 -0
    outer loop
      vertex 84.5816 2.25993 0
      vertex 83.006 3.34751 3
      vertex 84.5816 2.25993 3
    endloop
  endfacet
  facet normal 0.568072 0.822979 0
    outer loop
      vertex 83.006 3.34751 3
      vertex 84.5816 2.25993 0
      vertex 83.006 3.34751 0
    endloop
  endfacet
  facet normal 0.88544 0.464754 0
    outer loop
      vertex 83.006 3.34751 3
      vertex 82.1162 5.04274 0
      vertex 82.1162 5.04274 3
    endloop
  endfacet
  facet normal 0.88544 0.464754 0
    outer loop
      vertex 82.1162 5.04274 0
      vertex 83.006 3.34751 3
      vertex 83.006 3.34751 0
    endloop
  endfacet
  facet normal 0.56808 -0.822974 0
    outer loop
      vertex 83.006 88.6525 0
      vertex 84.5816 89.7401 3
      vertex 83.006 88.6525 3
    endloop
  endfacet
  facet normal 0.56808 -0.822974 0
    outer loop
      vertex 84.5816 89.7401 3
      vertex 83.006 88.6525 0
      vertex 84.5816 89.7401 0
    endloop
  endfacet
  facet normal -0.748518 -0.663115 0
    outer loop
      vertex 89.5418 87.8589 0
      vertex 88.2723 89.2919 3
      vertex 88.2723 89.2919 0
    endloop
  endfacet
  facet normal -0.748518 -0.663115 0
    outer loop
      vertex 88.2723 89.2919 3
      vertex 89.5418 87.8589 0
      vertex 89.5418 87.8589 3
    endloop
  endfacet
  facet normal -0.970939 -0.239327 0
    outer loop
      vertex 90 86 0
      vertex 89.5418 87.8589 3
      vertex 89.5418 87.8589 0
    endloop
  endfacet
  facet normal -0.970939 -0.239327 0
    outer loop
      vertex 89.5418 87.8589 3
      vertex 90 86 0
      vertex 90 86 3
    endloop
  endfacet
  facet normal -0.748518 0.663115 0
    outer loop
      vertex 88.2723 82.7081 0
      vertex 89.5418 84.1411 3
      vertex 89.5418 84.1411 0
    endloop
  endfacet
  facet normal -0.748518 0.663115 0
    outer loop
      vertex 89.5418 84.1411 3
      vertex 88.2723 82.7081 0
      vertex 88.2723 82.7081 3
    endloop
  endfacet
  facet normal 0.885437 0.46476 0
    outer loop
      vertex 83.006 83.3475 3
      vertex 82.1162 85.0427 0
      vertex 82.1162 85.0427 3
    endloop
  endfacet
  facet normal 0.885437 0.46476 0
    outer loop
      vertex 82.1162 85.0427 0
      vertex 83.006 83.3475 3
      vertex 83.006 83.3475 0
    endloop
  endfacet
  facet normal -0.970939 0.239327 0
    outer loop
      vertex 89.5418 84.1411 0
      vertex 90 86 3
      vertex 90 86 0
    endloop
  endfacet
  facet normal -0.970939 0.239327 0
    outer loop
      vertex 90 86 3
      vertex 89.5418 84.1411 0
      vertex 89.5418 84.1411 3
    endloop
  endfacet
  facet normal -0.35459 -0.935022 0
    outer loop
      vertex 86.4821 89.9708 0
      vertex 88.2723 89.2919 3
      vertex 86.4821 89.9708 3
    endloop
  endfacet
  facet normal -0.35459 -0.935022 -0
    outer loop
      vertex 88.2723 89.2919 3
      vertex 86.4821 89.9708 0
      vertex 88.2723 89.2919 0
    endloop
  endfacet
  facet normal -0.35459 0.935022 0
    outer loop
      vertex 88.2723 82.7081 0
      vertex 86.4821 82.0292 3
      vertex 88.2723 82.7081 3
    endloop
  endfacet
  facet normal -0.35459 0.935022 0
    outer loop
      vertex 86.4821 82.0292 3
      vertex 88.2723 82.7081 0
      vertex 86.4821 82.0292 0
    endloop
  endfacet
  facet normal 0.885437 -0.46476 0
    outer loop
      vertex 82.1162 86.9573 3
      vertex 83.006 88.6525 0
      vertex 83.006 88.6525 3
    endloop
  endfacet
  facet normal 0.885437 -0.46476 0
    outer loop
      vertex 83.006 88.6525 0
      vertex 82.1162 86.9573 3
      vertex 82.1162 86.9573 0
    endloop
  endfacet
  facet normal 0.120505 -0.992713 0
    outer loop
      vertex 84.5816 89.7401 0
      vertex 86.4821 89.9708 3
      vertex 84.5816 89.7401 3
    endloop
  endfacet
  facet normal 0.120505 -0.992713 0
    outer loop
      vertex 86.4821 89.9708 3
      vertex 84.5816 89.7401 0
      vertex 86.4821 89.9708 0
    endloop
  endfacet
  facet normal 0.120505 0.992713 -0
    outer loop
      vertex 86.4821 82.0292 0
      vertex 84.5816 82.2599 3
      vertex 86.4821 82.0292 3
    endloop
  endfacet
  facet normal 0.120505 0.992713 0
    outer loop
      vertex 84.5816 82.2599 3
      vertex 86.4821 82.0292 0
      vertex 84.5816 82.2599 0
    endloop
  endfacet
  facet normal 0.56808 0.822974 -0
    outer loop
      vertex 84.5816 82.2599 0
      vertex 83.006 83.3475 3
      vertex 84.5816 82.2599 3
    endloop
  endfacet
  facet normal 0.56808 0.822974 0
    outer loop
      vertex 83.006 83.3475 3
      vertex 84.5816 82.2599 0
      vertex 83.006 83.3475 0
    endloop
  endfacet
  facet normal 1 -0 0
    outer loop
      vertex 82.1162 85.0427 3
      vertex 82.1162 86.9573 0
      vertex 82.1162 86.9573 3
    endloop
  endfacet
  facet normal 1 0 0
    outer loop
      vertex 82.1162 86.9573 0
      vertex 82.1162 85.0427 3
      vertex 82.1162 85.0427 0
    endloop
  endfacet
  facet normal 1 -0 0
    outer loop
      vertex 92 0 3
      vertex 92 92 0
      vertex 92 92 3
    endloop
  endfacet
  facet normal 1 0 0
    outer loop
      vertex 92 92 0
      vertex 92 0 3
      vertex 92 0 0
    endloop
  endfacet
  facet normal 0 0 1
    outer loop
      vertex 8.27226 9.29193 3
      vertex 15.8891 12.5585 3
      vertex 9.59423 19.5497 3
    endloop
  endfacet
  facet normal 0 0 1
    outer loop
      vertex 15.8891 12.5585 3
      vertex 9.54182 7.85889 3
      vertex 10 6 3
    endloop
  endfacet
  facet normal 0 0 1
    outer loop
      vertex 15.8891 12.5585 3
      vertex 8.27226 9.29193 3
      vertex 9.54182 7.85889 3
    endloop
  endfacet
  facet normal 0 0 1
    outer loop
      vertex 9.59423 19.5497 3
      vertex 6.48215 9.97083 3
      vertex 8.27226 9.29193 3
    endloop
  endfacet
  facet normal 0 0 1
    outer loop
      vertex 4.58158 9.74006 3
      vertex 9.59423 19.5497 3
      vertex 4.89045 27.6968 3
    endloop
  endfacet
  facet normal 0 0 1
    outer loop
      vertex 9.59423 19.5497 3
      vertex 4.58158 9.74006 3
      vertex 6.48215 9.97083 3
    endloop
  endfacet
  facet normal 0 0 1
    outer loop
      vertex 4.89045 27.6968 3
      vertex 3.00596 8.65249 3
      vertex 4.58158 9.74006 3
    endloop
  endfacet
  facet normal 0 0 1
    outer loop
      vertex 4.89045 27.6968 3
      vertex 2.11623 6.95726 3
      vertex 3.00596 8.65249 3
    endloop
  endfacet
  facet normal 0 0 1
    outer loop
      vertex 0 0 3
      vertex 2.11623 6.95726 3
      vertex 1.98336 36.644 3
    endloop
  endfacet
  facet normal 0 0 1
    outer loop
      vertex 1.98336 36.644 3
      vertex 2.11623 6.95726 3
      vertex 4.89045 27.6968 3
    endloop
  endfacet
  facet normal -0 0 1
    outer loop
      vertex 9.54182 84.1411 3
      vertex 15.8891 79.4415 3
      vertex 10 86 3
    endloop
  endfacet
  facet normal -0 0 1
    outer loop
      vertex 8.27226 82.7081 3
      vertex 15.8891 79.4415 3
      vertex 9.54182 84.1411 3
    endloop
  endfacet
  facet normal 0 0 1
    outer loop
      vertex 15.8891 79.4415 3
      vertex 8.27226 82.7081 3
      vertex 9.59423 72.4503 3
    endloop
  endfacet
  facet normal -0 0 1
    outer loop
      vertex 6.48215 82.0292 3
      vertex 9.59423 72.4503 3
      vertex 8.27226 82.7081 3
    endloop
  endfacet
  facet normal 0 0 1
    outer loop
      vertex 4.58158 82.2599 3
      vertex 9.59423 72.4503 3
      vertex 6.48215 82.0292 3
    endloop
  endfacet
  facet normal 0 0 1
    outer loop
      vertex 9.59423 72.4503 3
      vertex 4.58158 82.2599 3
      vertex 4.89045 64.3031 3
    endloop
  endfacet
  facet normal 0 0 1
    outer loop
      vertex 3.00596 83.3475 3
      vertex 4.89045 64.3031 3
      vertex 4.58158 82.2599 3
    endloop
  endfacet
  facet normal 0 0 1
    outer loop
      vertex 2.11623 85.0427 3
      vertex 4.89045 64.3031 3
      vertex 3.00596 83.3475 3
    endloop
  endfacet
  facet normal 0 0 1
    outer loop
      vertex 4.89045 64.3031 3
      vertex 2.11623 85.0427 3
      vertex 1.98336 55.356 3
    endloop
  endfacet
  facet normal 0 0 1
    outer loop
      vertex 90.0166 36.644 3
      vertex 89.5418 7.85889 3
      vertex 90 6 3
    endloop
  endfacet
  facet normal -0 0 1
    outer loop
      vertex 87.1095 27.6968 3
      vertex 89.5418 7.85889 3
      vertex 90.0166 36.644 3
    endloop
  endfacet
  facet normal 0 0 1
    outer loop
      vertex 89.5418 7.85889 3
      vertex 87.1095 27.6968 3
      vertex 88.2723 9.29193 3
    endloop
  endfacet
  facet normal -0 0 1
    outer loop
      vertex 82.4058 19.5497 3
      vertex 88.2723 9.29193 3
      vertex 87.1095 27.6968 3
    endloop
  endfacet
  facet normal 0 0 1
    outer loop
      vertex 88.2723 9.29193 3
      vertex 82.4058 19.5497 3
      vertex 86.4821 9.97083 3
    endloop
  endfacet
  facet normal 0 0 1
    outer loop
      vertex 86.4821 9.97083 3
      vertex 82.4058 19.5497 3
      vertex 84.5816 9.74006 3
    endloop
  endfacet
  facet normal -0 0 1
    outer loop
      vertex 76.1109 12.5585 3
      vertex 84.5816 9.74006 3
      vertex 82.4058 19.5497 3
    endloop
  endfacet
  facet normal 0 0 1
    outer loop
      vertex 84.5816 9.74006 3
      vertex 76.1109 12.5585 3
      vertex 83.006 8.65249 3
    endloop
  endfacet
  facet normal 0 0 1
    outer loop
      vertex 82.1162 6.95726 3
      vertex 76.1109 12.5585 3
      vertex 82.1162 5.04274 3
    endloop
  endfacet
  facet normal 0 0 1
    outer loop
      vertex 83.006 8.65249 3
      vertex 76.1109 12.5585 3
      vertex 82.1162 6.95726 3
    endloop
  endfacet
  facet normal 0 0 1
    outer loop
      vertex 92 92 3
      vertex 91 46 3
      vertex 92 0 3
    endloop
  endfacet
  facet normal 0 0 1
    outer loop
      vertex 92 92 3
      vertex 90.0166 55.356 3
      vertex 91 46 3
    endloop
  endfacet
  facet normal 0 0 1
    outer loop
      vertex 92 92 3
      vertex 90 86 3
      vertex 90.0166 55.356 3
    endloop
  endfacet
  facet normal 0 0 1
    outer loop
      vertex 92 92 3
      vertex 89.5418 87.8589 3
      vertex 90 86 3
    endloop
  endfacet
  facet normal 0 0 1
    outer loop
      vertex 92 92 3
      vertex 88.2723 89.2919 3
      vertex 89.5418 87.8589 3
    endloop
  endfacet
  facet normal 0 0 1
    outer loop
      vertex 92 92 3
      vertex 86.4821 89.9708 3
      vertex 88.2723 89.2919 3
    endloop
  endfacet
  facet normal 0 0 1
    outer loop
      vertex 92 92 3
      vertex 84.5816 89.7401 3
      vertex 86.4821 89.9708 3
    endloop
  endfacet
  facet normal 0 0 1
    outer loop
      vertex 82.1162 86.9573 3
      vertex 76.1109 79.4415 3
      vertex 82.1162 85.0427 3
    endloop
  endfacet
  facet normal 0 0 1
    outer loop
      vertex 68.5 84.9711 3
      vertex 82.1162 86.9573 3
      vertex 83.006 88.6525 3
    endloop
  endfacet
  facet normal 0 0 1
    outer loop
      vertex 82.1162 86.9573 3
      vertex 68.5 84.9711 3
      vertex 76.1109 79.4415 3
    endloop
  endfacet
  facet normal -0 0 1
    outer loop
      vertex 59.9058 88.7975 3
      vertex 83.006 88.6525 3
      vertex 84.5816 89.7401 3
    endloop
  endfacet
  facet normal 0 0 1
    outer loop
      vertex 59.9058 88.7975 3
      vertex 84.5816 89.7401 3
      vertex 92 92 3
    endloop
  endfacet
  facet normal 0 0 1
    outer loop
      vertex 83.006 88.6525 3
      vertex 59.9058 88.7975 3
      vertex 68.5 84.9711 3
    endloop
  endfacet
  facet normal 0 0 1
    outer loop
      vertex 92 92 3
      vertex 50.7038 90.7535 3
      vertex 59.9058 88.7975 3
    endloop
  endfacet
  facet normal 0 0 1
    outer loop
      vertex 92 92 3
      vertex 41.2962 90.7535 3
      vertex 50.7038 90.7535 3
    endloop
  endfacet
  facet normal 0 0 1
    outer loop
      vertex 23.5 84.9711 3
      vertex 10 86 3
      vertex 15.8891 79.4415 3
    endloop
  endfacet
  facet normal 0 0 1
    outer loop
      vertex 8.27226 89.2919 3
      vertex 23.5 84.9711 3
      vertex 32.0942 88.7975 3
    endloop
  endfacet
  facet normal 0 0 1
    outer loop
      vertex 0 92 3
      vertex 32.0942 88.7975 3
      vertex 41.2962 90.7535 3
    endloop
  endfacet
  facet normal 0 0 1
    outer loop
      vertex 23.5 84.9711 3
      vertex 9.54182 87.8589 3
      vertex 10 86 3
    endloop
  endfacet
  facet normal 0 0 1
    outer loop
      vertex 23.5 84.9711 3
      vertex 8.27226 89.2919 3
      vertex 9.54182 87.8589 3
    endloop
  endfacet
  facet normal 0 0 1
    outer loop
      vertex 32.0942 88.7975 3
      vertex 6.48215 89.9708 3
      vertex 8.27226 89.2919 3
    endloop
  endfacet
  facet normal -0 0 1
    outer loop
      vertex 0 92 3
      vertex 41.2962 90.7535 3
      vertex 92 92 3
    endloop
  endfacet
  facet normal 0 0 1
    outer loop
      vertex 0 92 3
      vertex 2.11623 85.0427 3
      vertex 2.11623 86.9573 3
    endloop
  endfacet
  facet normal 0 0 1
    outer loop
      vertex 2.11623 85.0427 3
      vertex 0 92 3
      vertex 1.98336 55.356 3
    endloop
  endfacet
  facet normal 0 0 1
    outer loop
      vertex 1.98336 55.356 3
      vertex 0 92 3
      vertex 1 46 3
    endloop
  endfacet
  facet normal 0 0 1
    outer loop
      vertex 3.00596 88.6525 3
      vertex 0 92 3
      vertex 2.11623 86.9573 3
    endloop
  endfacet
  facet normal 0 0 1
    outer loop
      vertex 4.58158 89.7401 3
      vertex 0 92 3
      vertex 3.00596 88.6525 3
    endloop
  endfacet
  facet normal 0 0 1
    outer loop
      vertex 6.48215 89.9708 3
      vertex 0 92 3
      vertex 4.58158 89.7401 3
    endloop
  endfacet
  facet normal 0 0 1
    outer loop
      vertex 32.0942 88.7975 3
      vertex 0 92 3
      vertex 6.48215 89.9708 3
    endloop
  endfacet
  facet normal -0 0 1
    outer loop
      vertex 90.0166 36.644 3
      vertex 92 0 3
      vertex 91 46 3
    endloop
  endfacet
  facet normal -0 0 1
    outer loop
      vertex 90 6 3
      vertex 92 0 3
      vertex 90.0166 36.644 3
    endloop
  endfacet
  facet normal -0 0 1
    outer loop
      vertex 89.5418 4.14111 3
      vertex 92 0 3
      vertex 90 6 3
    endloop
  endfacet
  facet normal -0 0 1
    outer loop
      vertex 88.2723 2.70806 3
      vertex 92 0 3
      vertex 89.5418 4.14111 3
    endloop
  endfacet
  facet normal -0 0 1
    outer loop
      vertex 86.4821 2.02916 3
      vertex 92 0 3
      vertex 88.2723 2.70806 3
    endloop
  endfacet
  facet normal 0 0 1
    outer loop
      vertex 84.5816 2.25993 3
      vertex 92 0 3
      vertex 86.4821 2.02916 3
    endloop
  endfacet
  facet normal -0 0 1
    outer loop
      vertex 68.5 7.02886 3
      vertex 82.1162 5.04274 3
      vertex 76.1109 12.5585 3
    endloop
  endfacet
  facet normal 0 0 1
    outer loop
      vertex 82.1162 5.04274 3
      vertex 68.5 7.02886 3
      vertex 83.006 3.34751 3
    endloop
  endfacet
  facet normal 0 0 1
    outer loop
      vertex 59.9058 3.20246 3
      vertex 83.006 3.34751 3
      vertex 68.5 7.02886 3
    endloop
  endfacet
  facet normal 0 0 1
    outer loop
      vertex 83.006 3.34751 3
      vertex 59.9058 3.20246 3
      vertex 84.5816 2.25993 3
    endloop
  endfacet
  facet normal 0 0 1
    outer loop
      vertex 84.5816 2.25993 3
      vertex 59.9058 3.20246 3
      vertex 92 0 3
    endloop
  endfacet
  facet normal -0 0 1
    outer loop
      vertex 50.7038 1.24651 3
      vertex 92 0 3
      vertex 59.9058 3.20246 3
    endloop
  endfacet
  facet normal -0 0 1
    outer loop
      vertex 41.2962 1.24651 3
      vertex 92 0 3
      vertex 50.7038 1.24651 3
    endloop
  endfacet
  facet normal 0 0 1
    outer loop
      vertex 10 6 3
      vertex 23.5 7.02886 3
      vertex 15.8891 12.5585 3
    endloop
  endfacet
  facet normal 0 0 1
    outer loop
      vertex 9.54182 4.14111 3
      vertex 23.5 7.02886 3
      vertex 10 6 3
    endloop
  endfacet
  facet normal 0 0 1
    outer loop
      vertex 8.27226 2.70806 3
      vertex 23.5 7.02886 3
      vertex 9.54182 4.14111 3
    endloop
  endfacet
  facet normal 0 0 1
    outer loop
      vertex 23.5 7.02886 3
      vertex 8.27226 2.70806 3
      vertex 32.0942 3.20246 3
    endloop
  endfacet
  facet normal 0 0 1
    outer loop
      vertex 6.48215 2.02916 3
      vertex 32.0942 3.20246 3
      vertex 8.27226 2.70806 3
    endloop
  endfacet
  facet normal 0 0 1
    outer loop
      vertex 0 0 3
      vertex 32.0942 3.20246 3
      vertex 6.48215 2.02916 3
    endloop
  endfacet
  facet normal 0 0 1
    outer loop
      vertex 32.0942 3.20246 3
      vertex 0 0 3
      vertex 41.2962 1.24651 3
    endloop
  endfacet
  facet normal 0 0 1
    outer loop
      vertex 0 0 3
      vertex 1.98336 36.644 3
      vertex 1 46 3
    endloop
  endfacet
  facet normal 0 0 1
    outer loop
      vertex 41.2962 1.24651 3
      vertex 0 0 3
      vertex 92 0 3
    endloop
  endfacet
  facet normal 0 0 1
    outer loop
      vertex 4.58158 2.25993 3
      vertex 0 0 3
      vertex 6.48215 2.02916 3
    endloop
  endfacet
  facet normal 0 0 1
    outer loop
      vertex 3.00596 3.34751 3
      vertex 0 0 3
      vertex 4.58158 2.25993 3
    endloop
  endfacet
  facet normal 0 0 1
    outer loop
      vertex 2.11623 5.04274 3
      vertex 0 0 3
      vertex 3.00596 3.34751 3
    endloop
  endfacet
  facet normal 0 0 1
    outer loop
      vertex 2.11623 6.95726 3
      vertex 0 0 3
      vertex 2.11623 5.04274 3
    endloop
  endfacet
  facet normal 0 0 1
    outer loop
      vertex 0 0 3
      vertex 1 46 3
      vertex 0 92 3
    endloop
  endfacet
  facet normal -0 0 1
    outer loop
      vertex 89.5418 84.1411 3
      vertex 90.0166 55.356 3
      vertex 90 86 3
    endloop
  endfacet
  facet normal 0 0 1
    outer loop
      vertex 87.1095 64.3031 3
      vertex 89.5418 84.1411 3
      vertex 88.2723 82.7081 3
    endloop
  endfacet
  facet normal 0 0 1
    outer loop
      vertex 89.5418 84.1411 3
      vertex 87.1095 64.3031 3
      vertex 90.0166 55.356 3
    endloop
  endfacet
  facet normal 0 0 1
    outer loop
      vertex 82.4058 72.4503 3
      vertex 88.2723 82.7081 3
      vertex 86.4821 82.0292 3
    endloop
  endfacet
  facet normal 0 0 1
    outer loop
      vertex 82.4058 72.4503 3
      vertex 86.4821 82.0292 3
      vertex 84.5816 82.2599 3
    endloop
  endfacet
  facet normal 0 0 1
    outer loop
      vertex 76.1109 79.4415 3
      vertex 84.5816 82.2599 3
      vertex 83.006 83.3475 3
    endloop
  endfacet
  facet normal 0 0 1
    outer loop
      vertex 88.2723 82.7081 3
      vertex 82.4058 72.4503 3
      vertex 87.1095 64.3031 3
    endloop
  endfacet
  facet normal 0 0 1
    outer loop
      vertex 76.1109 79.4415 3
      vertex 83.006 83.3475 3
      vertex 82.1162 85.0427 3
    endloop
  endfacet
  facet normal 0 0 1
    outer loop
      vertex 84.5816 82.2599 3
      vertex 76.1109 79.4415 3
      vertex 82.4058 72.4503 3
    endloop
  endfacet
  facet normal 0 0 -1
    outer loop
      vertex 8.27226 82.7081 0
      vertex 15.8891 79.4415 0
      vertex 9.59423 72.4503 0
    endloop
  endfacet
  facet normal 0 0 -1
    outer loop
      vertex 15.8891 79.4415 0
      vertex 9.54182 84.1411 0
      vertex 10 86 0
    endloop
  endfacet
  facet normal 0 0 -1
    outer loop
      vertex 15.8891 79.4415 0
      vertex 8.27226 82.7081 0
      vertex 9.54182 84.1411 0
    endloop
  endfacet
  facet normal 0 0 -1
    outer loop
      vertex 9.59423 72.4503 0
      vertex 6.48215 82.0292 0
      vertex 8.27226 82.7081 0
    endloop
  endfacet
  facet normal 0 0 -1
    outer loop
      vertex 4.58158 82.2599 0
      vertex 9.59423 72.4503 0
      vertex 4.89045 64.3031 0
    endloop
  endfacet
  facet normal 0 0 -1
    outer loop
      vertex 9.59423 72.4503 0
      vertex 4.58158 82.2599 0
      vertex 6.48215 82.0292 0
    endloop
  endfacet
  facet normal 0 0 -1
    outer loop
      vertex 4.89045 64.3031 0
      vertex 3.00596 83.3475 0
      vertex 4.58158 82.2599 0
    endloop
  endfacet
  facet normal 0 0 -1
    outer loop
      vertex 4.89045 64.3031 0
      vertex 2.11623 85.0427 0
      vertex 3.00596 83.3475 0
    endloop
  endfacet
  facet normal 0 0 -1
    outer loop
      vertex 0 92 0
      vertex 2.11623 85.0427 0
      vertex 1.98336 55.356 0
    endloop
  endfacet
  facet normal 0 0 -1
    outer loop
      vertex 1.98336 55.356 0
      vertex 2.11623 85.0427 0
      vertex 4.89045 64.3031 0
    endloop
  endfacet
  facet normal 0 0 -1
    outer loop
      vertex 9.54182 7.85889 0
      vertex 15.8891 12.5585 0
      vertex 10 6 0
    endloop
  endfacet
  facet normal 0 0 -1
    outer loop
      vertex 8.27226 9.29193 0
      vertex 15.8891 12.5585 0
      vertex 9.54182 7.85889 0
    endloop
  endfacet
  facet normal -0 0 -1
    outer loop
      vertex 15.8891 12.5585 0
      vertex 8.27226 9.29193 0
      vertex 9.59423 19.5497 0
    endloop
  endfacet
  facet normal 0 0 -1
    outer loop
      vertex 6.48215 9.97083 0
      vertex 9.59423 19.5497 0
      vertex 8.27226 9.29193 0
    endloop
  endfacet
  facet normal 0 0 -1
    outer loop
      vertex 4.58158 9.74006 0
      vertex 9.59423 19.5497 0
      vertex 6.48215 9.97083 0
    endloop
  endfacet
  facet normal -0 0 -1
    outer loop
      vertex 9.59423 19.5497 0
      vertex 4.58158 9.74006 0
      vertex 4.89045 27.6968 0
    endloop
  endfacet
  facet normal 0 0 -1
    outer loop
      vertex 3.00596 8.65249 0
      vertex 4.89045 27.6968 0
      vertex 4.58158 9.74006 0
    endloop
  endfacet
  facet normal 0 0 -1
    outer loop
      vertex 2.11623 6.95726 0
      vertex 4.89045 27.6968 0
      vertex 3.00596 8.65249 0
    endloop
  endfacet
  facet normal -0 0 -1
    outer loop
      vertex 4.89045 27.6968 0
      vertex 2.11623 6.95726 0
      vertex 1.98336 36.644 0
    endloop
  endfacet
  facet normal 0 0 -1
    outer loop
      vertex 90.0166 55.356 0
      vertex 89.5418 84.1411 0
      vertex 90 86 0
    endloop
  endfacet
  facet normal 0 0 -1
    outer loop
      vertex 87.1095 64.3031 0
      vertex 89.5418 84.1411 0
      vertex 90.0166 55.356 0
    endloop
  endfacet
  facet normal 0 0 -1
    outer loop
      vertex 89.5418 84.1411 0
      vertex 87.1095 64.3031 0
      vertex 88.2723 82.7081 0
    endloop
  endfacet
  facet normal 0 0 -1
    outer loop
      vertex 82.4058 72.4503 0
      vertex 88.2723 82.7081 0
      vertex 87.1095 64.3031 0
    endloop
  endfacet
  facet normal 0 0 -1
    outer loop
      vertex 88.2723 82.7081 0
      vertex 82.4058 72.4503 0
      vertex 86.4821 82.0292 0
    endloop
  endfacet
  facet normal -0 0 -1
    outer loop
      vertex 86.4821 82.0292 0
      vertex 82.4058 72.4503 0
      vertex 84.5816 82.2599 0
    endloop
  endfacet
  facet normal 0 0 -1
    outer loop
      vertex 76.1109 79.4415 0
      vertex 84.5816 82.2599 0
      vertex 82.4058 72.4503 0
    endloop
  endfacet
  facet normal -0 0 -1
    outer loop
      vertex 84.5816 82.2599 0
      vertex 76.1109 79.4415 0
      vertex 83.006 83.3475 0
    endloop
  endfacet
  facet normal -0 0 -1
    outer loop
      vertex 82.1162 85.0427 0
      vertex 76.1109 79.4415 0
      vertex 82.1162 86.9573 0
    endloop
  endfacet
  facet normal -0 0 -1
    outer loop
      vertex 83.006 83.3475 0
      vertex 76.1109 79.4415 0
      vertex 82.1162 85.0427 0
    endloop
  endfacet
  facet normal 0 0 -1
    outer loop
      vertex 92 0 0
      vertex 91 46 0
      vertex 92 92 0
    endloop
  endfacet
  facet normal 0 0 -1
    outer loop
      vertex 92 0 0
      vertex 90.0166 36.644 0
      vertex 91 46 0
    endloop
  endfacet
  facet normal 0 0 -1
    outer loop
      vertex 92 0 0
      vertex 90 6 0
      vertex 90.0166 36.644 0
    endloop
  endfacet
  facet normal 0 0 -1
    outer loop
      vertex 92 0 0
      vertex 89.5418 4.14111 0
      vertex 90 6 0
    endloop
  endfacet
  facet normal 0 0 -1
    outer loop
      vertex 92 0 0
      vertex 88.2723 2.70806 0
      vertex 89.5418 4.14111 0
    endloop
  endfacet
  facet normal 0 0 -1
    outer loop
      vertex 92 0 0
      vertex 86.4821 2.02916 0
      vertex 88.2723 2.70806 0
    endloop
  endfacet
  facet normal 0 0 -1
    outer loop
      vertex 92 0 0
      vertex 84.5816 2.25993 0
      vertex 86.4821 2.02916 0
    endloop
  endfacet
  facet normal 0 0 -1
    outer loop
      vertex 82.1162 5.04274 0
      vertex 76.1109 12.5585 0
      vertex 82.1162 6.95726 0
    endloop
  endfacet
  facet normal 0 0 -1
    outer loop
      vertex 68.5 7.02886 0
      vertex 82.1162 5.04274 0
      vertex 83.006 3.34751 0
    endloop
  endfacet
  facet normal 0 0 -1
    outer loop
      vertex 82.1162 5.04274 0
      vertex 68.5 7.02886 0
      vertex 76.1109 12.5585 0
    endloop
  endfacet
  facet normal 0 0 -1
    outer loop
      vertex 59.9058 3.20246 0
      vertex 83.006 3.34751 0
      vertex 84.5816 2.25993 0
    endloop
  endfacet
  facet normal 0 0 -1
    outer loop
      vertex 59.9058 3.20246 0
      vertex 84.5816 2.25993 0
      vertex 92 0 0
    endloop
  endfacet
  facet normal -0 0 -1
    outer loop
      vertex 83.006 3.34751 0
      vertex 59.9058 3.20246 0
      vertex 68.5 7.02886 0
    endloop
  endfacet
  facet normal 0 0 -1
    outer loop
      vertex 92 0 0
      vertex 50.7038 1.24651 0
      vertex 59.9058 3.20246 0
    endloop
  endfacet
  facet normal 0 0 -1
    outer loop
      vertex 92 0 0
      vertex 41.2962 1.24651 0
      vertex 50.7038 1.24651 0
    endloop
  endfacet
  facet normal -0 0 -1
    outer loop
      vertex 23.5 7.02886 0
      vertex 10 6 0
      vertex 15.8891 12.5585 0
    endloop
  endfacet
  facet normal 0 0 -1
    outer loop
      vertex 8.27226 2.70806 0
      vertex 23.5 7.02886 0
      vertex 32.0942 3.20246 0
    endloop
  endfacet
  facet normal 0 0 -1
    outer loop
      vertex 0 0 0
      vertex 32.0942 3.20246 0
      vertex 41.2962 1.24651 0
    endloop
  endfacet
  facet normal 0 0 -1
    outer loop
      vertex 23.5 7.02886 0
      vertex 9.54182 4.14111 0
      vertex 10 6 0
    endloop
  endfacet
  facet normal 0 0 -1
    outer loop
      vertex 23.5 7.02886 0
      vertex 8.27226 2.70806 0
      vertex 9.54182 4.14111 0
    endloop
  endfacet
  facet normal 0 0 -1
    outer loop
      vertex 32.0942 3.20246 0
      vertex 6.48215 2.02916 0
      vertex 8.27226 2.70806 0
    endloop
  endfacet
  facet normal 0 0 -1
    outer loop
      vertex 0 0 0
      vertex 41.2962 1.24651 0
      vertex 92 0 0
    endloop
  endfacet
  facet normal 0 0 -1
    outer loop
      vertex 0 0 0
      vertex 2.11623 6.95726 0
      vertex 2.11623 5.04274 0
    endloop
  endfacet
  facet normal -0 0 -1
    outer loop
      vertex 2.11623 6.95726 0
      vertex 0 0 0
      vertex 1.98336 36.644 0
    endloop
  endfacet
  facet normal -0 0 -1
    outer loop
      vertex 1.98336 36.644 0
      vertex 0 0 0
      vertex 1 46 0
    endloop
  endfacet
  facet normal -0 0 -1
    outer loop
      vertex 3.00596 3.34751 0
      vertex 0 0 0
      vertex 2.11623 5.04274 0
    endloop
  endfacet
  facet normal -0 0 -1
    outer loop
      vertex 4.58158 2.25993 0
      vertex 0 0 0
      vertex 3.00596 3.34751 0
    endloop
  endfacet
  facet normal -0 0 -1
    outer loop
      vertex 6.48215 2.02916 0
      vertex 0 0 0
      vertex 4.58158 2.25993 0
    endloop
  endfacet
  facet normal 0 0 -1
    outer loop
      vertex 32.0942 3.20246 0
      vertex 0 0 0
      vertex 6.48215 2.02916 0
    endloop
  endfacet
  facet normal 0 0 -1
    outer loop
      vertex 90.0166 55.356 0
      vertex 92 92 0
      vertex 91 46 0
    endloop
  endfacet
  facet normal 0 0 -1
    outer loop
      vertex 90 86 0
      vertex 92 92 0
      vertex 90.0166 55.356 0
    endloop
  endfacet
  facet normal 0 0 -1
    outer loop
      vertex 89.5418 87.8589 0
      vertex 92 92 0
      vertex 90 86 0
    endloop
  endfacet
  facet normal 0 0 -1
    outer loop
      vertex 88.2723 89.2919 0
      vertex 92 92 0
      vertex 89.5418 87.8589 0
    endloop
  endfacet
  facet normal 0 0 -1
    outer loop
      vertex 86.4821 89.9708 0
      vertex 92 92 0
      vertex 88.2723 89.2919 0
    endloop
  endfacet
  facet normal 0 0 -1
    outer loop
      vertex 84.5816 89.7401 0
      vertex 92 92 0
      vertex 86.4821 89.9708 0
    endloop
  endfacet
  facet normal 0 0 -1
    outer loop
      vertex 68.5 84.9711 0
      vertex 82.1162 86.9573 0
      vertex 76.1109 79.4415 0
    endloop
  endfacet
  facet normal -0 0 -1
    outer loop
      vertex 82.1162 86.9573 0
      vertex 68.5 84.9711 0
      vertex 83.006 88.6525 0
    endloop
  endfacet
  facet normal 0 0 -1
    outer loop
      vertex 59.9058 88.7975 0
      vertex 83.006 88.6525 0
      vertex 68.5 84.9711 0
    endloop
  endfacet
  facet normal 0 0 -1
    outer loop
      vertex 83.006 88.6525 0
      vertex 59.9058 88.7975 0
      vertex 84.5816 89.7401 0
    endloop
  endfacet
  facet normal -0 0 -1
    outer loop
      vertex 84.5816 89.7401 0
      vertex 59.9058 88.7975 0
      vertex 92 92 0
    endloop
  endfacet
  facet normal 0 0 -1
    outer loop
      vertex 50.7038 90.7535 0
      vertex 92 92 0
      vertex 59.9058 88.7975 0
    endloop
  endfacet
  facet normal 0 0 -1
    outer loop
      vertex 41.2962 90.7535 0
      vertex 92 92 0
      vertex 50.7038 90.7535 0
    endloop
  endfacet
  facet normal 0 0 -1
    outer loop
      vertex 10 86 0
      vertex 23.5 84.9711 0
      vertex 15.8891 79.4415 0
    endloop
  endfacet
  facet normal 0 0 -1
    outer loop
      vertex 9.54182 87.8589 0
      vertex 23.5 84.9711 0
      vertex 10 86 0
    endloop
  endfacet
  facet normal 0 0 -1
    outer loop
      vertex 8.27226 89.2919 0
      vertex 23.5 84.9711 0
      vertex 9.54182 87.8589 0
    endloop
  endfacet
  facet normal 0 0 -1
    outer loop
      vertex 23.5 84.9711 0
      vertex 8.27226 89.2919 0
      vertex 32.0942 88.7975 0
    endloop
  endfacet
  facet normal 0 0 -1
    outer loop
      vertex 6.48215 89.9708 0
      vertex 32.0942 88.7975 0
      vertex 8.27226 89.2919 0
    endloop
  endfacet
  facet normal 0 0 -1
    outer loop
      vertex 0 92 0
      vertex 32.0942 88.7975 0
      vertex 6.48215 89.9708 0
    endloop
  endfacet
  facet normal 0 0 -1
    outer loop
      vertex 32.0942 88.7975 0
      vertex 0 92 0
      vertex 41.2962 90.7535 0
    endloop
  endfacet
  facet normal 0 0 -1
    outer loop
      vertex 0 92 0
      vertex 1.98336 55.356 0
      vertex 1 46 0
    endloop
  endfacet
  facet normal 0 0 -1
    outer loop
      vertex 41.2962 90.7535 0
      vertex 0 92 0
      vertex 92 92 0
    endloop
  endfacet
  facet normal 0 0 -1
    outer loop
      vertex 4.58158 89.7401 0
      vertex 0 92 0
      vertex 6.48215 89.9708 0
    endloop
  endfacet
  facet normal 0 0 -1
    outer loop
      vertex 3.00596 88.6525 0
      vertex 0 92 0
      vertex 4.58158 89.7401 0
    endloop
  endfacet
  facet normal 0 0 -1
    outer loop
      vertex 2.11623 86.9573 0
      vertex 0 92 0
      vertex 3.00596 88.6525 0
    endloop
  endfacet
  facet normal 0 0 -1
    outer loop
      vertex 2.11623 85.0427 0
      vertex 0 92 0
      vertex 2.11623 86.9573 0
    endloop
  endfacet
  facet normal 0 0 -1
    outer loop
      vertex 0 92 0
      vertex 1 46 0
      vertex 0 0 0
    endloop
  endfacet
  facet normal 0 0 -1
    outer loop
      vertex 89.5418 7.85889 0
      vertex 90.0166 36.644 0
      vertex 90 6 0
    endloop
  endfacet
  facet normal 0 0 -1
    outer loop
      vertex 87.1095 27.6968 0
      vertex 89.5418 7.85889 0
      vertex 88.2723 9.29193 0
    endloop
  endfacet
  facet normal 0 0 -1
    outer loop
      vertex 89.5418 7.85889 0
      vertex 87.1095 27.6968 0
      vertex 90.0166 36.644 0
    endloop
  endfacet
  facet normal 0 0 -1
    outer loop
      vertex 82.4058 19.5497 0
      vertex 88.2723 9.29193 0
      vertex 86.4821 9.97083 0
    endloop
  endfacet
  facet normal 0 0 -1
    outer loop
      vertex 82.4058 19.5497 0
      vertex 86.4821 9.97083 0
      vertex 84.5816 9.74006 0
    endloop
  endfacet
  facet normal 0 0 -1
    outer loop
      vertex 76.1109 12.5585 0
      vertex 84.5816 9.74006 0
      vertex 83.006 8.65249 0
    endloop
  endfacet
  facet normal 0 0 -1
    outer loop
      vertex 88.2723 9.29193 0
      vertex 82.4058 19.5497 0
      vertex 87.1095 27.6968 0
    endloop
  endfacet
  facet normal 0 0 -1
    outer loop
      vertex 76.1109 12.5585 0
      vertex 83.006 8.65249 0
      vertex 82.1162 6.95726 0
    endloop
  endfacet
  facet normal 0 0 -1
    outer loop
      vertex 84.5816 9.74006 0
      vertex 76.1109 12.5585 0
      vertex 82.4058 19.5497 0
    endloop
  endfacet
  facet normal -1 0 0
    outer loop
      vertex 0 0 0
      vertex 0 92 3
      vertex 0 92 0
    endloop
  endfacet
  facet normal -1 -0 0
    outer loop
      vertex 0 92 3
      vertex 0 0 0
      vertex 0 0 3
    endloop
  endfacet
  facet normal 0 1 -0
    outer loop
      vertex 92 92 0
      vertex 0 92 3
      vertex 92 92 3
    endloop
  endfacet
  facet normal 0 1 0
    outer loop
      vertex 0 92 3
      vertex 92 92 0
      vertex 0 92 0
    endloop
  endfacet
  facet normal 0 -1 0
    outer loop
      vertex 0 0 0
      vertex 92 0 3
      vertex 0 0 3
    endloop
  endfacet
  facet normal 0 -1 -0
    outer loop
      vertex 92 0 3
      vertex 0 0 0
      vertex 92 0 0
    endloop
  endfacet
  facet normal 0.587782 -0.809019 0
    outer loop
      vertex 15.8891 79.4415 0
      vertex 23.5 84.9711 3
      vertex 15.8891 79.4415 3
    endloop
  endfacet
  facet normal 0.587782 -0.809019 0
    outer loop
      vertex 23.5 84.9711 3
      vertex 15.8891 79.4415 0
      vertex 23.5 84.9711 0
    endloop
  endfacet
  facet normal -0.587782 -0.809019 0
    outer loop
      vertex 68.5 84.9711 0
      vertex 76.1109 79.4415 3
      vertex 68.5 84.9711 3
    endloop
  endfacet
  facet normal -0.587782 -0.809019 -0
    outer loop
      vertex 76.1109 79.4415 3
      vertex 68.5 84.9711 0
      vertex 76.1109 79.4415 0
    endloop
  endfacet
  facet normal 0.951058 0.309014 0
    outer loop
      vertex 4.89045 27.6968 3
      vertex 1.98336 36.644 0
      vertex 1.98336 36.644 3
    endloop
  endfacet
  facet normal 0.951058 0.309014 0
    outer loop
      vertex 1.98336 36.644 0
      vertex 4.89045 27.6968 3
      vertex 4.89045 27.6968 0
    endloop
  endfacet
  facet normal -0.994521 0.104533 0
    outer loop
      vertex 90.0166 36.644 0
      vertex 91 46 3
      vertex 91 46 0
    endloop
  endfacet
  facet normal -0.994521 0.104533 0
    outer loop
      vertex 91 46 3
      vertex 90.0166 36.644 0
      vertex 90.0166 36.644 3
    endloop
  endfacet
  facet normal -0.743145 0.66913 0
    outer loop
      vertex 76.1109 12.5585 0
      vertex 82.4058 19.5497 3
      vertex 82.4058 19.5497 0
    endloop
  endfacet
  facet normal -0.743145 0.66913 0
    outer loop
      vertex 82.4058 19.5497 3
      vertex 76.1109 12.5585 0
      vertex 76.1109 12.5585 3
    endloop
  endfacet
  facet normal -0.866029 -0.499993 0
    outer loop
      vertex 87.1095 64.3031 0
      vertex 82.4058 72.4503 3
      vertex 82.4058 72.4503 0
    endloop
  endfacet
  facet normal -0.866029 -0.499993 0
    outer loop
      vertex 82.4058 72.4503 3
      vertex 87.1095 64.3031 0
      vertex 87.1095 64.3031 3
    endloop
  endfacet
  facet normal 0.587785 0.809017 -0
    outer loop
      vertex 23.5 7.02886 0
      vertex 15.8891 12.5585 3
      vertex 23.5 7.02886 3
    endloop
  endfacet
  facet normal 0.587785 0.809017 0
    outer loop
      vertex 15.8891 12.5585 3
      vertex 23.5 7.02886 0
      vertex 15.8891 12.5585 0
    endloop
  endfacet
  facet normal -0.994521 -0.104533 0
    outer loop
      vertex 91 46 0
      vertex 90.0166 55.356 3
      vertex 90.0166 55.356 0
    endloop
  endfacet
  facet normal -0.994521 -0.104533 0
    outer loop
      vertex 90.0166 55.356 3
      vertex 91 46 0
      vertex 91 46 3
    endloop
  endfacet
  facet normal 0.994522 0.104529 0
    outer loop
      vertex 1.98336 36.644 3
      vertex 1 46 0
      vertex 1 46 3
    endloop
  endfacet
  facet normal 0.994522 0.104529 0
    outer loop
      vertex 1 46 0
      vertex 1.98336 36.644 3
      vertex 1.98336 36.644 0
    endloop
  endfacet
  facet normal -0.587785 0.809017 0
    outer loop
      vertex 76.1109 12.5585 0
      vertex 68.5 7.02886 3
      vertex 76.1109 12.5585 3
    endloop
  endfacet
  facet normal -0.587785 0.809017 0
    outer loop
      vertex 68.5 7.02886 3
      vertex 76.1109 12.5585 0
      vertex 68.5 7.02886 0
    endloop
  endfacet
  facet normal 0.406738 0.913545 -0
    outer loop
      vertex 32.0942 3.20246 0
      vertex 23.5 7.02886 3
      vertex 32.0942 3.20246 3
    endloop
  endfacet
  facet normal 0.406738 0.913545 0
    outer loop
      vertex 23.5 7.02886 3
      vertex 32.0942 3.20246 0
      vertex 23.5 7.02886 0
    endloop
  endfacet
  facet normal 0.951056 -0.309017 0
    outer loop
      vertex 1.98336 55.356 3
      vertex 4.89045 64.3031 0
      vertex 4.89045 64.3031 3
    endloop
  endfacet
  facet normal 0.951056 -0.309017 0
    outer loop
      vertex 4.89045 64.3031 0
      vertex 1.98336 55.356 3
      vertex 1.98336 55.356 0
    endloop
  endfacet
  facet normal -0.951056 -0.309018 0
    outer loop
      vertex 90.0166 55.356 0
      vertex 87.1095 64.3031 3
      vertex 87.1095 64.3031 0
    endloop
  endfacet
  facet normal -0.951056 -0.309018 0
    outer loop
      vertex 87.1095 64.3031 3
      vertex 90.0166 55.356 0
      vertex 90.0166 55.356 3
    endloop
  endfacet
  facet normal 0.866023 0.500004 0
    outer loop
      vertex 9.59423 19.5497 3
      vertex 4.89045 27.6968 0
      vertex 4.89045 27.6968 3
    endloop
  endfacet
  facet normal 0.866023 0.500004 0
    outer loop
      vertex 4.89045 27.6968 0
      vertex 9.59423 19.5497 3
      vertex 9.59423 19.5497 0
    endloop
  endfacet
  facet normal -0.406738 0.913545 0
    outer loop
      vertex 68.5 7.02886 0
      vertex 59.9058 3.20246 3
      vertex 68.5 7.02886 3
    endloop
  endfacet
  facet normal -0.406738 0.913545 0
    outer loop
      vertex 59.9058 3.20246 3
      vertex 68.5 7.02886 0
      vertex 59.9058 3.20246 0
    endloop
  endfacet
  facet normal -0.207917 -0.978146 0
    outer loop
      vertex 50.7038 90.7535 0
      vertex 59.9058 88.7975 3
      vertex 50.7038 90.7535 3
    endloop
  endfacet
  facet normal -0.207917 -0.978146 -0
    outer loop
      vertex 59.9058 88.7975 3
      vertex 50.7038 90.7535 0
      vertex 59.9058 88.7975 0
    endloop
  endfacet
  facet normal 0.743147 -0.669129 0
    outer loop
      vertex 9.59423 72.4503 3
      vertex 15.8891 79.4415 0
      vertex 15.8891 79.4415 3
    endloop
  endfacet
  facet normal 0.743147 -0.669129 0
    outer loop
      vertex 15.8891 79.4415 0
      vertex 9.59423 72.4503 3
      vertex 9.59423 72.4503 0
    endloop
  endfacet
  facet normal 0.994522 -0.104529 0
    outer loop
      vertex 1 46 3
      vertex 1.98336 55.356 0
      vertex 1.98336 55.356 3
    endloop
  endfacet
  facet normal 0.994522 -0.104529 0
    outer loop
      vertex 1.98336 55.356 0
      vertex 1 46 3
      vertex 1 46 0
    endloop
  endfacet
  facet normal -0.866027 0.499998 0
    outer loop
      vertex 82.4058 19.5497 0
      vertex 87.1095 27.6968 3
      vertex 87.1095 27.6968 0
    endloop
  endfacet
  facet normal -0.866027 0.499998 0
    outer loop
      vertex 87.1095 27.6968 3
      vertex 82.4058 19.5497 0
      vertex 82.4058 19.5497 3
    endloop
  endfacet
  facet normal 0.207912 0.978148 -0
    outer loop
      vertex 41.2962 1.24651 0
      vertex 32.0942 3.20246 3
      vertex 41.2962 1.24651 3
    endloop
  endfacet
  facet normal 0.207912 0.978148 0
    outer loop
      vertex 32.0942 3.20246 3
      vertex 41.2962 1.24651 0
      vertex 32.0942 3.20246 0
    endloop
  endfacet
  facet normal -0.743145 -0.66913 0
    outer loop
      vertex 82.4058 72.4503 0
      vertex 76.1109 79.4415 3
      vertex 76.1109 79.4415 0
    endloop
  endfacet
  facet normal -0.743145 -0.66913 0
    outer loop
      vertex 76.1109 79.4415 3
      vertex 82.4058 72.4503 0
      vertex 82.4058 72.4503 3
    endloop
  endfacet
  facet normal -0.406738 -0.913545 0
    outer loop
      vertex 59.9058 88.7975 0
      vertex 68.5 84.9711 3
      vertex 59.9058 88.7975 3
    endloop
  endfacet
  facet normal -0.406738 -0.913545 -0
    outer loop
      vertex 68.5 84.9711 3
      vertex 59.9058 88.7975 0
      vertex 68.5 84.9711 0
    endloop
  endfacet
  facet normal 0.743147 0.669129 0
    outer loop
      vertex 15.8891 12.5585 3
      vertex 9.59423 19.5497 0
      vertex 9.59423 19.5497 3
    endloop
  endfacet
  facet normal 0.743147 0.669129 0
    outer loop
      vertex 9.59423 19.5497 0
      vertex 15.8891 12.5585 3
      vertex 15.8891 12.5585 0
    endloop
  endfacet
  facet normal -0.207912 0.978148 0
    outer loop
      vertex 59.9058 3.20246 0
      vertex 50.7038 1.24651 3
      vertex 59.9058 3.20246 3
    endloop
  endfacet
  facet normal -0.207912 0.978148 0
    outer loop
      vertex 50.7038 1.24651 3
      vertex 59.9058 3.20246 0
      vertex 50.7038 1.24651 0
    endloop
  endfacet
  facet normal 0.406738 -0.913545 0
    outer loop
      vertex 23.5 84.9711 0
      vertex 32.0942 88.7975 3
      vertex 23.5 84.9711 3
    endloop
  endfacet
  facet normal 0.406738 -0.913545 0
    outer loop
      vertex 32.0942 88.7975 3
      vertex 23.5 84.9711 0
      vertex 32.0942 88.7975 0
    endloop
  endfacet
  facet normal 0 -1 0
    outer loop
      vertex 41.2962 90.7535 0
      vertex 50.7038 90.7535 3
      vertex 41.2962 90.7535 3
    endloop
  endfacet
  facet normal 0 -1 -0
    outer loop
      vertex 50.7038 90.7535 3
      vertex 41.2962 90.7535 0
      vertex 50.7038 90.7535 0
    endloop
  endfacet
  facet normal -0.951057 0.309015 0
    outer loop
      vertex 87.1095 27.6968 0
      vertex 90.0166 36.644 3
      vertex 90.0166 36.644 0
    endloop
  endfacet
  facet normal -0.951057 0.309015 0
    outer loop
      vertex 90.0166 36.644 3
      vertex 87.1095 27.6968 0
      vertex 87.1095 27.6968 3
    endloop
  endfacet
  facet normal 0.866026 -0.499999 0
    outer loop
      vertex 4.89045 64.3031 3
      vertex 9.59423 72.4503 0
      vertex 9.59423 72.4503 3
    endloop
  endfacet
  facet normal 0.866026 -0.499999 0
    outer loop
      vertex 9.59423 72.4503 0
      vertex 4.89045 64.3031 3
      vertex 4.89045 64.3031 0
    endloop
  endfacet
  facet normal 0.207917 -0.978146 0
    outer loop
      vertex 32.0942 88.7975 0
      vertex 41.2962 90.7535 3
      vertex 32.0942 88.7975 3
    endloop
  endfacet
  facet normal 0.207917 -0.978146 0
    outer loop
      vertex 41.2962 90.7535 3
      vertex 32.0942 88.7975 0
      vertex 41.2962 90.7535 0
    endloop
  endfacet
  facet normal 0 1 -0
    outer loop
      vertex 50.7038 1.24651 0
      vertex 41.2962 1.24651 3
      vertex 50.7038 1.24651 3
    endloop
  endfacet
  facet normal 0 1 0
    outer loop
      vertex 41.2962 1.24651 3
      vertex 50.7038 1.24651 0
      vertex 41.2962 1.24651 0
    endloop
  endfacet
endsolid OpenSCAD_Model
