solid OpenSCAD_Model
  facet normal 0.951057 -0.309017 0
    outer loop
      vertex 3 6 3
      vertex 3.57295 7.76336 0
      vertex 3.57295 7.76336 3
    endloop
  endfacet
  facet normal 0.951057 -0.309017 0
    outer loop
      vertex 3.57295 7.76336 0
      vertex 3 6 3
      vertex 3 6 0
    endloop
  endfacet
  facet normal 0.587784 0.809018 -0
    outer loop
      vertex 5.07295 3.14683 0
      vertex 3.57295 4.23664 3
      vertex 5.07295 3.14683 3
    endloop
  endfacet
  facet normal 0.587784 0.809018 0
    outer loop
      vertex 3.57295 4.23664 3
      vertex 5.07295 3.14683 0
      vertex 3.57295 4.23664 0
    endloop
  endfacet
  facet normal -0.587784 -0.809018 0
    outer loop
      vertex 6.92705 8.85317 0
      vertex 8.42705 7.76336 3
      vertex 6.92705 8.85317 3
    endloop
  endfacet
  facet normal -0.587784 -0.809018 -0
    outer loop
      vertex 8.42705 7.76336 3
      vertex 6.92705 8.85317 0
      vertex 8.42705 7.76336 0
    endloop
  endfacet
  facet normal -0.951057 -0.309017 0
    outer loop
      vertex 9 6 0
      vertex 8.42705 7.76336 3
      vertex 8.42705 7.76336 0
    endloop
  endfacet
  facet normal -0.951057 -0.309017 0
    outer loop
      vertex 8.42705 7.76336 3
      vertex 9 6 0
      vertex 9 6 3
    endloop
  endfacet
  facet normal 0 -1 0
    outer loop
      vertex 5.07295 8.85317 0
      vertex 6.92705 8.85317 3
      vertex 5.07295 8.85317 3
    endloop
  endfacet
  facet normal 0 -1 -0
    outer loop
      vertex 6.92705 8.85317 3
      vertex 5.07295 8.85317 0
      vertex 6.92705 8.85317 0
    endloop
  endfacet
  facet normal -0.587784 0.809018 0
    outer loop
      vertex 8.42705 4.23664 0
      vertex 6.92705 3.14683 3
      vertex 8.42705 4.23664 3
    endloop
  endfacet
  facet normal -0.587784 0.809018 0
    outer loop
      vertex 6.92705 3.14683 3
      vertex 8.42705 4.23664 0
      vertex 6.92705 3.14683 0
    endloop
  endfacet
  facet normal 0 1 -0
    outer loop
      vertex 6.92705 3.14683 0
      vertex 5.07295 3.14683 3
      vertex 6.92705 3.14683 3
    endloop
  endfacet
  facet normal 0 1 0
    outer loop
      vertex 5.07295 3.14683 3
      vertex 6.92705 3.14683 0
      vertex 5.07295 3.14683 0
    endloop
  endfacet
  facet normal 0.587784 -0.809018 0
    outer loop
      vertex 3.57295 7.76336 0
      vertex 5.07295 8.85317 3
      vertex 3.57295 7.76336 3
    endloop
  endfacet
  facet normal 0.587784 -0.809018 0
    outer loop
      vertex 5.07295 8.85317 3
      vertex 3.57295 7.76336 0
      vertex 5.07295 8.85317 0
    endloop
  endfacet
  facet normal -0.951057 0.309017 0
    outer loop
      vertex 8.42705 4.23664 0
      vertex 9 6 3
      vertex 9 6 0
    endloop
  endfacet
  facet normal -0.951057 0.309017 0
    outer loop
      vertex 9 6 3
      vertex 8.42705 4.23664 0
      vertex 8.42705 4.23664 3
    endloop
  endfacet
  facet normal 0.951057 0.309017 0
    outer loop
      vertex 3.57295 4.23664 3
      vertex 3 6 0
      vertex 3 6 3
    endloop
  endfacet
  facet normal 0.951057 0.309017 0
    outer loop
      vertex 3 6 0
      vertex 3.57295 4.23664 3
      vertex 3.57295 4.23664 0
    endloop
  endfacet
  facet normal 0.951059 -0.30901 0
    outer loop
      vertex 3 86 3
      vertex 3.57295 87.7634 0
      vertex 3.57295 87.7634 3
    endloop
  endfacet
  facet normal 0.951059 -0.30901 0
    outer loop
      vertex 3.57295 87.7634 0
      vertex 3 86 3
      vertex 3 86 0
    endloop
  endfacet
  facet normal 0.58778 0.809021 -0
    outer loop
      vertex 5.07295 83.1468 0
      vertex 3.57295 84.2366 3
      vertex 5.07295 83.1468 3
    endloop
  endfacet
  facet normal 0.58778 0.809021 0
    outer loop
      vertex 3.57295 84.2366 3
      vertex 5.07295 83.1468 0
      vertex 3.57295 84.2366 0
    endloop
  endfacet
  facet normal -0.58778 -0.809021 0
    outer loop
      vertex 6.92705 88.8532 0
      vertex 8.42705 87.7634 3
      vertex 6.92705 88.8532 3
    endloop
  endfacet
  facet normal -0.58778 -0.809021 -0
    outer loop
      vertex 8.42705 87.7634 3
      vertex 6.92705 88.8532 0
      vertex 8.42705 87.7634 0
    endloop
  endfacet
  facet normal -0.951059 -0.30901 0
    outer loop
      vertex 9 86 0
      vertex 8.42705 87.7634 3
      vertex 8.42705 87.7634 0
    endloop
  endfacet
  facet normal -0.951059 -0.30901 0
    outer loop
      vertex 8.42705 87.7634 3
      vertex 9 86 0
      vertex 9 86 3
    endloop
  endfacet
  facet normal 0 -1 0
    outer loop
      vertex 5.07295 88.8532 0
      vertex 6.92705 88.8532 3
      vertex 5.07295 88.8532 3
    endloop
  endfacet
  facet normal 0 -1 -0
    outer loop
      vertex 6.92705 88.8532 3
      vertex 5.07295 88.8532 0
      vertex 6.92705 88.8532 0
    endloop
  endfacet
  facet normal -0.58778 0.809021 0
    outer loop
      vertex 8.42705 84.2366 0
      vertex 6.92705 83.1468 3
      vertex 8.42705 84.2366 3
    endloop
  endfacet
  facet normal -0.58778 0.809021 0
    outer loop
      vertex 6.92705 83.1468 3
      vertex 8.42705 84.2366 0
      vertex 6.92705 83.1468 0
    endloop
  endfacet
  facet normal 0 1 -0
    outer loop
      vertex 6.92705 83.1468 0
      vertex 5.07295 83.1468 3
      vertex 6.92705 83.1468 3
    endloop
  endfacet
  facet normal 0 1 0
    outer loop
      vertex 5.07295 83.1468 3
      vertex 6.92705 83.1468 0
      vertex 5.07295 83.1468 0
    endloop
  endfacet
  facet normal 0.58778 -0.809021 0
    outer loop
      vertex 3.57295 87.7634 0
      vertex 5.07295 88.8532 3
      vertex 3.57295 87.7634 3
    endloop
  endfacet
  facet normal 0.58778 -0.809021 0
    outer loop
      vertex 5.07295 88.8532 3
      vertex 3.57295 87.7634 0
      vertex 5.07295 88.8532 0
    endloop
  endfacet
  facet normal -0.951059 0.30901 0
    outer loop
      vertex 8.42705 84.2366 0
      vertex 9 86 3
      vertex 9 86 0
    endloop
  endfacet
  facet normal -0.951059 0.30901 0
    outer loop
      vertex 9 86 3
      vertex 8.42705 84.2366 0
      vertex 8.42705 84.2366 3
    endloop
  endfacet
  facet normal 0.951059 0.30901 0
    outer loop
      vertex 3.57295 84.2366 3
      vertex 3 86 0
      vertex 3 86 3
    endloop
  endfacet
  facet normal 0.951059 0.30901 0
    outer loop
      vertex 3 86 0
      vertex 3.57295 84.2366 3
      vertex 3.57295 84.2366 0
    endloop
  endfacet
  facet normal 0.951049 -0.309041 0
    outer loop
      vertex 83 6 3
      vertex 83.573 7.76336 0
      vertex 83.573 7.76336 3
    endloop
  endfacet
  facet normal 0.951049 -0.309041 0
    outer loop
      vertex 83.573 7.76336 0
      vertex 83 6 3
      vertex 83 6 0
    endloop
  endfacet
  facet normal 0.587784 0.809018 -0
    outer loop
      vertex 85.073 3.14683 0
      vertex 83.573 4.23664 3
      vertex 85.073 3.14683 3
    endloop
  endfacet
  facet normal 0.587784 0.809018 0
    outer loop
      vertex 83.573 4.23664 3
      vertex 85.073 3.14683 0
      vertex 83.573 4.23664 0
    endloop
  endfacet
  facet normal -0.587784 -0.809018 0
    outer loop
      vertex 86.927 8.85317 0
      vertex 88.427 7.76336 3
      vertex 86.927 8.85317 3
    endloop
  endfacet
  facet normal -0.587784 -0.809018 -0
    outer loop
      vertex 88.427 7.76336 3
      vertex 86.927 8.85317 0
      vertex 88.427 7.76336 0
    endloop
  endfacet
  facet normal -0.951049 -0.309041 0
    outer loop
      vertex 89 6 0
      vertex 88.427 7.76336 3
      vertex 88.427 7.76336 0
    endloop
  endfacet
  facet normal -0.951049 -0.309041 0
    outer loop
      vertex 88.427 7.76336 3
      vertex 89 6 0
      vertex 89 6 3
    endloop
  endfacet
  facet normal 0 -1 0
    outer loop
      vertex 85.073 8.85317 0
      vertex 86.927 8.85317 3
      vertex 85.073 8.85317 3
    endloop
  endfacet
  facet normal 0 -1 -0
    outer loop
      vertex 86.927 8.85317 3
      vertex 85.073 8.85317 0
      vertex 86.927 8.85317 0
    endloop
  endfacet
  facet normal -0.587784 0.809018 0
    outer loop
      vertex 88.427 4.23664 0
      vertex 86.927 3.14683 3
      vertex 88.427 4.23664 3
    endloop
  endfacet
  facet normal -0.587784 0.809018 0
    outer loop
      vertex 86.927 3.14683 3
      vertex 88.427 4.23664 0
      vertex 86.927 3.14683 0
    endloop
  endfacet
  facet normal 0 1 -0
    outer loop
      vertex 86.927 3.14683 0
      vertex 85.073 3.14683 3
      vertex 86.927 3.14683 3
    endloop
  endfacet
  facet normal 0 1 0
    outer loop
      vertex 85.073 3.14683 3
      vertex 86.927 3.14683 0
      vertex 85.073 3.14683 0
    endloop
  endfacet
  facet normal 0.587784 -0.809018 0
    outer loop
      vertex 83.573 7.76336 0
      vertex 85.073 8.85317 3
      vertex 83.573 7.76336 3
    endloop
  endfacet
  facet normal 0.587784 -0.809018 0
    outer loop
      vertex 85.073 8.85317 3
      vertex 83.573 7.76336 0
      vertex 85.073 8.85317 0
    endloop
  endfacet
  facet normal -0.951049 0.309041 0
    outer loop
      vertex 88.427 4.23664 0
      vertex 89 6 3
      vertex 89 6 0
    endloop
  endfacet
  facet normal -0.951049 0.309041 0
    outer loop
      vertex 89 6 3
      vertex 88.427 4.23664 0
      vertex 88.427 4.23664 3
    endloop
  endfacet
  facet normal 0.951049 0.309041 0
    outer loop
      vertex 83.573 4.23664 3
      vertex 83 6 0
      vertex 83 6 3
    endloop
  endfacet
  facet normal 0.951049 0.309041 0
    outer loop
      vertex 83 6 0
      vertex 83.573 4.23664 3
      vertex 83.573 4.23664 0
    endloop
  endfacet
  facet normal -0.58778 -0.809021 0
    outer loop
      vertex 86.927 88.8532 0
      vertex 88.427 87.7634 3
      vertex 86.927 88.8532 3
    endloop
  endfacet
  facet normal -0.58778 -0.809021 -0
    outer loop
      vertex 88.427 87.7634 3
      vertex 86.927 88.8532 0
      vertex 88.427 87.7634 0
    endloop
  endfacet
  facet normal -0.951051 -0.309035 0
    outer loop
      vertex 89 86 0
      vertex 88.427 87.7634 3
      vertex 88.427 87.7634 0
    endloop
  endfacet
  facet normal -0.951051 -0.309035 0
    outer loop
      vertex 88.427 87.7634 3
      vertex 89 86 0
      vertex 89 86 3
    endloop
  endfacet
  facet normal 0 -1 0
    outer loop
      vertex 85.073 88.8532 0
      vertex 86.927 88.8532 3
      vertex 85.073 88.8532 3
    endloop
  endfacet
  facet normal 0 -1 -0
    outer loop
      vertex 86.927 88.8532 3
      vertex 85.073 88.8532 0
      vertex 86.927 88.8532 0
    endloop
  endfacet
  facet normal 0.951051 -0.309035 0
    outer loop
      vertex 83 86 3
      vertex 83.573 87.7634 0
      vertex 83.573 87.7634 3
    endloop
  endfacet
  facet normal 0.951051 -0.309035 0
    outer loop
      vertex 83.573 87.7634 0
      vertex 83 86 3
      vertex 83 86 0
    endloop
  endfacet
  facet normal 0.58778 -0.809021 0
    outer loop
      vertex 83.573 87.7634 0
      vertex 85.073 88.8532 3
      vertex 83.573 87.7634 3
    endloop
  endfacet
  facet normal 0.58778 -0.809021 0
    outer loop
      vertex 85.073 88.8532 3
      vertex 83.573 87.7634 0
      vertex 85.073 88.8532 0
    endloop
  endfacet
  facet normal 0.951051 0.309035 0
    outer loop
      vertex 83.573 84.2366 3
      vertex 83 86 0
      vertex 83 86 3
    endloop
  endfacet
  facet normal 0.951051 0.309035 0
    outer loop
      vertex 83 86 0
      vertex 83.573 84.2366 3
      vertex 83.573 84.2366 0
    endloop
  endfacet
  facet normal -0.58778 0.809021 0
    outer loop
      vertex 88.427 84.2366 0
      vertex 86.927 83.1468 3
      vertex 88.427 84.2366 3
    endloop
  endfacet
  facet normal -0.58778 0.809021 0
    outer loop
      vertex 86.927 83.1468 3
      vertex 88.427 84.2366 0
      vertex 86.927 83.1468 0
    endloop
  endfacet
  facet normal 0 1 -0
    outer loop
      vertex 86.927 83.1468 0
      vertex 85.073 83.1468 3
      vertex 86.927 83.1468 3
    endloop
  endfacet
  facet normal 0 1 0
    outer loop
      vertex 85.073 83.1468 3
      vertex 86.927 83.1468 0
      vertex 85.073 83.1468 0
    endloop
  endfacet
  facet normal 0.58778 0.809021 -0
    outer loop
      vertex 85.073 83.1468 0
      vertex 83.573 84.2366 3
      vertex 85.073 83.1468 3
    endloop
  endfacet
  facet normal 0.58778 0.809021 0
    outer loop
      vertex 83.573 84.2366 3
      vertex 85.073 83.1468 0
      vertex 83.573 84.2366 0
    endloop
  endfacet
  facet normal -0.951051 0.309035 0
    outer loop
      vertex 88.427 84.2366 0
      vertex 89 86 3
      vertex 89 86 0
    endloop
  endfacet
  facet normal -0.951051 0.309035 0
    outer loop
      vertex 89 86 3
      vertex 88.427 84.2366 0
      vertex 88.427 84.2366 3
    endloop
  endfacet
  facet normal 1 -0 0
    outer loop
      vertex 92 0 3
      vertex 92 92 0
      vertex 92 92 3
    endloop
  endfacet
  facet normal 1 0 0
    outer loop
      vertex 92 92 0
      vertex 92 0 3
      vertex 92 0 0
    endloop
  endfacet
  facet normal 0 0 1
    outer loop
      vertex 16.5583 13.3016 3
      vertex 8.42705 7.76336 3
      vertex 9 6 3
    endloop
  endfacet
  facet normal 0 0 1
    outer loop
      vertex 16.5583 13.3016 3
      vertex 6.92705 8.85317 3
      vertex 8.42705 7.76336 3
    endloop
  endfacet
  facet normal 0 0 1
    outer loop
      vertex 5.07295 8.85317 3
      vertex 10.4033 20.1374 3
      vertex 5.804 28.1036 3
    endloop
  endfacet
  facet normal 0 0 1
    outer loop
      vertex 10.4033 20.1374 3
      vertex 5.07295 8.85317 3
      vertex 6.92705 8.85317 3
    endloop
  endfacet
  facet normal 0 0 1
    outer loop
      vertex 5.804 28.1036 3
      vertex 3.57295 7.76336 3
      vertex 5.07295 8.85317 3
    endloop
  endfacet
  facet normal 0 0 1
    outer loop
      vertex 2.9615 36.8519 3
      vertex 3.57295 7.76336 3
      vertex 5.804 28.1036 3
    endloop
  endfacet
  facet normal 0 0 1
    outer loop
      vertex 0 0 3
      vertex 3.57295 7.76336 3
      vertex 2.9615 36.8519 3
    endloop
  endfacet
  facet normal -0 0 1
    outer loop
      vertex 6.92705 83.1468 3
      vertex 16.5583 78.6984 3
      vertex 8.42705 84.2366 3
    endloop
  endfacet
  facet normal 0 0 1
    outer loop
      vertex 16.5583 78.6984 3
      vertex 6.92705 83.1468 3
      vertex 10.4033 71.8625 3
    endloop
  endfacet
  facet normal -0 0 1
    outer loop
      vertex 5.07295 83.1468 3
      vertex 10.4033 71.8625 3
      vertex 6.92705 83.1468 3
    endloop
  endfacet
  facet normal 0 0 1
    outer loop
      vertex 10.4033 71.8625 3
      vertex 5.07295 83.1468 3
      vertex 5.804 63.8964 3
    endloop
  endfacet
  facet normal 0 0 1
    outer loop
      vertex 3.57295 84.2366 3
      vertex 5.804 63.8964 3
      vertex 5.07295 83.1468 3
    endloop
  endfacet
  facet normal 0 0 1
    outer loop
      vertex 0 92 3
      vertex 3.57295 84.2366 3
      vertex 3 86 3
    endloop
  endfacet
  facet normal 0 0 1
    outer loop
      vertex 3.57295 84.2366 3
      vertex 2.9615 55.1481 3
      vertex 5.804 63.8964 3
    endloop
  endfacet
  facet normal 0 0 1
    outer loop
      vertex 92 0 3
      vertex 88.427 7.76336 3
      vertex 89 6 3
    endloop
  endfacet
  facet normal -0 0 1
    outer loop
      vertex 86.196 28.1036 3
      vertex 88.427 7.76336 3
      vertex 89.0385 36.8519 3
    endloop
  endfacet
  facet normal 0 0 1
    outer loop
      vertex 88.427 7.76336 3
      vertex 86.196 28.1036 3
      vertex 86.927 8.85317 3
    endloop
  endfacet
  facet normal -0 0 1
    outer loop
      vertex 81.5967 20.1374 3
      vertex 86.927 8.85317 3
      vertex 86.196 28.1036 3
    endloop
  endfacet
  facet normal 0 0 1
    outer loop
      vertex 86.927 8.85317 3
      vertex 81.5967 20.1374 3
      vertex 85.073 8.85317 3
    endloop
  endfacet
  facet normal -0 0 1
    outer loop
      vertex 75.4417 13.3016 3
      vertex 85.073 8.85317 3
      vertex 81.5967 20.1374 3
    endloop
  endfacet
  facet normal 0 0 1
    outer loop
      vertex 85.073 8.85317 3
      vertex 75.4417 13.3016 3
      vertex 83.573 7.76336 3
    endloop
  endfacet
  facet normal 0 0 1
    outer loop
      vertex 92 92 3
      vertex 90 46 3
      vertex 92 0 3
    endloop
  endfacet
  facet normal 0 0 1
    outer loop
      vertex 92 92 3
      vertex 89.0385 55.1481 3
      vertex 90 46 3
    endloop
  endfacet
  facet normal 0 0 1
    outer loop
      vertex 88.427 84.2366 3
      vertex 92 92 3
      vertex 89 86 3
    endloop
  endfacet
  facet normal 0 0 1
    outer loop
      vertex 92 92 3
      vertex 88.427 87.7634 3
      vertex 89 86 3
    endloop
  endfacet
  facet normal 0 0 1
    outer loop
      vertex 92 92 3
      vertex 86.927 88.8532 3
      vertex 88.427 87.7634 3
    endloop
  endfacet
  facet normal 0 0 1
    outer loop
      vertex 92 92 3
      vertex 85.073 88.8532 3
      vertex 86.927 88.8532 3
    endloop
  endfacet
  facet normal 0 0 1
    outer loop
      vertex 85.073 83.1468 3
      vertex 75.4417 78.6984 3
      vertex 81.5967 71.8625 3
    endloop
  endfacet
  facet normal 0 0 1
    outer loop
      vertex 68 84.1051 3
      vertex 83 86 3
      vertex 83.573 87.7634 3
    endloop
  endfacet
  facet normal 0 0 1
    outer loop
      vertex 83 86 3
      vertex 68 84.1051 3
      vertex 75.4417 78.6984 3
    endloop
  endfacet
  facet normal -0 0 1
    outer loop
      vertex 59.5967 87.8465 3
      vertex 83.573 87.7634 3
      vertex 85.073 88.8532 3
    endloop
  endfacet
  facet normal 0 0 1
    outer loop
      vertex 59.5967 87.8465 3
      vertex 85.073 88.8532 3
      vertex 92 92 3
    endloop
  endfacet
  facet normal 0 0 1
    outer loop
      vertex 83.573 87.7634 3
      vertex 59.5967 87.8465 3
      vertex 68 84.1051 3
    endloop
  endfacet
  facet normal 0 0 1
    outer loop
      vertex 92 92 3
      vertex 50.5993 89.759 3
      vertex 59.5967 87.8465 3
    endloop
  endfacet
  facet normal 0 0 1
    outer loop
      vertex 92 92 3
      vertex 41.4007 89.759 3
      vertex 50.5993 89.759 3
    endloop
  endfacet
  facet normal -0 0 1
    outer loop
      vertex 8.42705 84.2366 3
      vertex 16.5583 78.6984 3
      vertex 9 86 3
    endloop
  endfacet
  facet normal 0 0 1
    outer loop
      vertex 24 84.1051 3
      vertex 9 86 3
      vertex 16.5583 78.6984 3
    endloop
  endfacet
  facet normal -0 0 1
    outer loop
      vertex 8.42705 87.7634 3
      vertex 24 84.1051 3
      vertex 32.4033 87.8465 3
    endloop
  endfacet
  facet normal 0 0 1
    outer loop
      vertex 0 92 3
      vertex 32.4033 87.8465 3
      vertex 41.4007 89.759 3
    endloop
  endfacet
  facet normal 0 0 1
    outer loop
      vertex 24 84.1051 3
      vertex 8.42705 87.7634 3
      vertex 9 86 3
    endloop
  endfacet
  facet normal 0 0 1
    outer loop
      vertex 32.4033 87.8465 3
      vertex 6.92705 88.8532 3
      vertex 8.42705 87.7634 3
    endloop
  endfacet
  facet normal -0 0 1
    outer loop
      vertex 0 92 3
      vertex 41.4007 89.759 3
      vertex 92 92 3
    endloop
  endfacet
  facet normal 0 0 1
    outer loop
      vertex 32.4033 87.8465 3
      vertex 0 92 3
      vertex 6.92705 88.8532 3
    endloop
  endfacet
  facet normal 0 0 1
    outer loop
      vertex 3.57295 84.2366 3
      vertex 0 92 3
      vertex 2.9615 55.1481 3
    endloop
  endfacet
  facet normal 0 0 1
    outer loop
      vertex 2.9615 55.1481 3
      vertex 0 92 3
      vertex 2 46 3
    endloop
  endfacet
  facet normal 0 0 1
    outer loop
      vertex 3.57295 87.7634 3
      vertex 0 92 3
      vertex 3 86 3
    endloop
  endfacet
  facet normal 0 0 1
    outer loop
      vertex 5.07295 88.8532 3
      vertex 0 92 3
      vertex 3.57295 87.7634 3
    endloop
  endfacet
  facet normal 0 0 1
    outer loop
      vertex 6.92705 88.8532 3
      vertex 0 92 3
      vertex 5.07295 88.8532 3
    endloop
  endfacet
  facet normal -0 0 1
    outer loop
      vertex 89.0385 36.8519 3
      vertex 92 0 3
      vertex 90 46 3
    endloop
  endfacet
  facet normal -0 0 1
    outer loop
      vertex 88.427 7.76336 3
      vertex 92 0 3
      vertex 89.0385 36.8519 3
    endloop
  endfacet
  facet normal -0 0 1
    outer loop
      vertex 88.427 4.23664 3
      vertex 92 0 3
      vertex 89 6 3
    endloop
  endfacet
  facet normal -0 0 1
    outer loop
      vertex 86.927 3.14683 3
      vertex 92 0 3
      vertex 88.427 4.23664 3
    endloop
  endfacet
  facet normal -0 0 1
    outer loop
      vertex 85.073 3.14683 3
      vertex 92 0 3
      vertex 86.927 3.14683 3
    endloop
  endfacet
  facet normal 0 0 1
    outer loop
      vertex 83.573 7.76336 3
      vertex 75.4417 13.3016 3
      vertex 83 6 3
    endloop
  endfacet
  facet normal -0 0 1
    outer loop
      vertex 68 7.89488 3
      vertex 83 6 3
      vertex 75.4417 13.3016 3
    endloop
  endfacet
  facet normal 0 0 1
    outer loop
      vertex 83 6 3
      vertex 68 7.89488 3
      vertex 83.573 4.23664 3
    endloop
  endfacet
  facet normal 0 0 1
    outer loop
      vertex 59.5967 4.15351 3
      vertex 83.573 4.23664 3
      vertex 68 7.89488 3
    endloop
  endfacet
  facet normal 0 0 1
    outer loop
      vertex 83.573 4.23664 3
      vertex 59.5967 4.15351 3
      vertex 85.073 3.14683 3
    endloop
  endfacet
  facet normal 0 0 1
    outer loop
      vertex 85.073 3.14683 3
      vertex 59.5967 4.15351 3
      vertex 92 0 3
    endloop
  endfacet
  facet normal -0 0 1
    outer loop
      vertex 50.5993 2.24104 3
      vertex 92 0 3
      vertex 59.5967 4.15351 3
    endloop
  endfacet
  facet normal -0 0 1
    outer loop
      vertex 41.4007 2.24104 3
      vertex 92 0 3
      vertex 50.5993 2.24104 3
    endloop
  endfacet
  facet normal 0 0 1
    outer loop
      vertex 6.92705 8.85317 3
      vertex 16.5583 13.3016 3
      vertex 10.4033 20.1374 3
    endloop
  endfacet
  facet normal 0 0 1
    outer loop
      vertex 9 6 3
      vertex 24 7.89488 3
      vertex 16.5583 13.3016 3
    endloop
  endfacet
  facet normal 0 0 1
    outer loop
      vertex 8.42705 4.23664 3
      vertex 24 7.89488 3
      vertex 9 6 3
    endloop
  endfacet
  facet normal 0 0 1
    outer loop
      vertex 24 7.89488 3
      vertex 8.42705 4.23664 3
      vertex 32.4033 4.15351 3
    endloop
  endfacet
  facet normal 0 0 1
    outer loop
      vertex 6.92705 3.14683 3
      vertex 32.4033 4.15351 3
      vertex 8.42705 4.23664 3
    endloop
  endfacet
  facet normal 0 0 1
    outer loop
      vertex 0 0 3
      vertex 32.4033 4.15351 3
      vertex 6.92705 3.14683 3
    endloop
  endfacet
  facet normal 0 0 1
    outer loop
      vertex 32.4033 4.15351 3
      vertex 0 0 3
      vertex 41.4007 2.24104 3
    endloop
  endfacet
  facet normal 0 0 1
    outer loop
      vertex 0 0 3
      vertex 6.92705 3.14683 3
      vertex 5.07295 3.14683 3
    endloop
  endfacet
  facet normal 0 0 1
    outer loop
      vertex 0 0 3
      vertex 2.9615 36.8519 3
      vertex 2 46 3
    endloop
  endfacet
  facet normal 0 0 1
    outer loop
      vertex 0 0 3
      vertex 2 46 3
      vertex 0 92 3
    endloop
  endfacet
  facet normal 0 0 1
    outer loop
      vertex 41.4007 2.24104 3
      vertex 0 0 3
      vertex 92 0 3
    endloop
  endfacet
  facet normal 0 0 1
    outer loop
      vertex 3.57295 4.23664 3
      vertex 0 0 3
      vertex 5.07295 3.14683 3
    endloop
  endfacet
  facet normal 0 0 1
    outer loop
      vertex 3 6 3
      vertex 0 0 3
      vertex 3.57295 4.23664 3
    endloop
  endfacet
  facet normal 0 0 1
    outer loop
      vertex 3.57295 7.76336 3
      vertex 0 0 3
      vertex 3 6 3
    endloop
  endfacet
  facet normal 0 0 1
    outer loop
      vertex 92 92 3
      vertex 88.427 84.2366 3
      vertex 89.0385 55.1481 3
    endloop
  endfacet
  facet normal 0 0 1
    outer loop
      vertex 86.196 63.8964 3
      vertex 88.427 84.2366 3
      vertex 86.927 83.1468 3
    endloop
  endfacet
  facet normal 0 0 1
    outer loop
      vertex 88.427 84.2366 3
      vertex 86.196 63.8964 3
      vertex 89.0385 55.1481 3
    endloop
  endfacet
  facet normal 0 0 1
    outer loop
      vertex 81.5967 71.8625 3
      vertex 86.927 83.1468 3
      vertex 85.073 83.1468 3
    endloop
  endfacet
  facet normal 0 0 1
    outer loop
      vertex 75.4417 78.6984 3
      vertex 85.073 83.1468 3
      vertex 83.573 84.2366 3
    endloop
  endfacet
  facet normal 0 0 1
    outer loop
      vertex 75.4417 78.6984 3
      vertex 83.573 84.2366 3
      vertex 83 86 3
    endloop
  endfacet
  facet normal 0 0 1
    outer loop
      vertex 86.927 83.1468 3
      vertex 81.5967 71.8625 3
      vertex 86.196 63.8964 3
    endloop
  endfacet
  facet normal 0 0 -1
    outer loop
      vertex 16.5583 78.6984 0
      vertex 8.42705 84.2366 0
      vertex 9 86 0
    endloop
  endfacet
  facet normal 0 0 -1
    outer loop
      vertex 16.5583 78.6984 0
      vertex 6.92705 83.1468 0
      vertex 8.42705 84.2366 0
    endloop
  endfacet
  facet normal 0 0 -1
    outer loop
      vertex 5.07295 83.1468 0
      vertex 10.4033 71.8625 0
      vertex 5.804 63.8964 0
    endloop
  endfacet
  facet normal 0 0 -1
    outer loop
      vertex 10.4033 71.8625 0
      vertex 5.07295 83.1468 0
      vertex 6.92705 83.1468 0
    endloop
  endfacet
  facet normal 0 0 -1
    outer loop
      vertex 5.804 63.8964 0
      vertex 3.57295 84.2366 0
      vertex 5.07295 83.1468 0
    endloop
  endfacet
  facet normal 0 0 -1
    outer loop
      vertex 2.9615 55.1481 0
      vertex 3.57295 84.2366 0
      vertex 5.804 63.8964 0
    endloop
  endfacet
  facet normal 0 0 -1
    outer loop
      vertex 0 92 0
      vertex 3.57295 84.2366 0
      vertex 2.9615 55.1481 0
    endloop
  endfacet
  facet normal 0 0 -1
    outer loop
      vertex 6.92705 8.85317 0
      vertex 16.5583 13.3016 0
      vertex 8.42705 7.76336 0
    endloop
  endfacet
  facet normal -0 0 -1
    outer loop
      vertex 16.5583 13.3016 0
      vertex 6.92705 8.85317 0
      vertex 10.4033 20.1374 0
    endloop
  endfacet
  facet normal 0 0 -1
    outer loop
      vertex 5.07295 8.85317 0
      vertex 10.4033 20.1374 0
      vertex 6.92705 8.85317 0
    endloop
  endfacet
  facet normal -0 0 -1
    outer loop
      vertex 10.4033 20.1374 0
      vertex 5.07295 8.85317 0
      vertex 5.804 28.1036 0
    endloop
  endfacet
  facet normal 0 0 -1
    outer loop
      vertex 3.57295 7.76336 0
      vertex 5.804 28.1036 0
      vertex 5.07295 8.85317 0
    endloop
  endfacet
  facet normal 0 0 -1
    outer loop
      vertex 0 0 0
      vertex 3.57295 7.76336 0
      vertex 3 6 0
    endloop
  endfacet
  facet normal 0 0 -1
    outer loop
      vertex 3.57295 7.76336 0
      vertex 2.9615 36.8519 0
      vertex 5.804 28.1036 0
    endloop
  endfacet
  facet normal 0 0 -1
    outer loop
      vertex 92 92 0
      vertex 88.427 84.2366 0
      vertex 89 86 0
    endloop
  endfacet
  facet normal 0 0 -1
    outer loop
      vertex 86.196 63.8964 0
      vertex 88.427 84.2366 0
      vertex 89.0385 55.1481 0
    endloop
  endfacet
  facet normal 0 0 -1
    outer loop
      vertex 88.427 84.2366 0
      vertex 86.196 63.8964 0
      vertex 86.927 83.1468 0
    endloop
  endfacet
  facet normal 0 0 -1
    outer loop
      vertex 81.5967 71.8625 0
      vertex 86.927 83.1468 0
      vertex 86.196 63.8964 0
    endloop
  endfacet
  facet normal -0 0 -1
    outer loop
      vertex 86.927 83.1468 0
      vertex 81.5967 71.8625 0
      vertex 85.073 83.1468 0
    endloop
  endfacet
  facet normal 0 0 -1
    outer loop
      vertex 75.4417 78.6984 0
      vertex 85.073 83.1468 0
      vertex 81.5967 71.8625 0
    endloop
  endfacet
  facet normal -0 0 -1
    outer loop
      vertex 85.073 83.1468 0
      vertex 75.4417 78.6984 0
      vertex 83.573 84.2366 0
    endloop
  endfacet
  facet normal 0 0 -1
    outer loop
      vertex 92 0 0
      vertex 90 46 0
      vertex 92 92 0
    endloop
  endfacet
  facet normal 0 0 -1
    outer loop
      vertex 92 0 0
      vertex 89.0385 36.8519 0
      vertex 90 46 0
    endloop
  endfacet
  facet normal 0 0 -1
    outer loop
      vertex 88.427 7.76336 0
      vertex 92 0 0
      vertex 89 6 0
    endloop
  endfacet
  facet normal 0 0 -1
    outer loop
      vertex 92 0 0
      vertex 88.427 4.23664 0
      vertex 89 6 0
    endloop
  endfacet
  facet normal 0 0 -1
    outer loop
      vertex 92 0 0
      vertex 86.927 3.14683 0
      vertex 88.427 4.23664 0
    endloop
  endfacet
  facet normal 0 0 -1
    outer loop
      vertex 92 0 0
      vertex 85.073 3.14683 0
      vertex 86.927 3.14683 0
    endloop
  endfacet
  facet normal 0 0 -1
    outer loop
      vertex 85.073 8.85317 0
      vertex 75.4417 13.3016 0
      vertex 81.5967 20.1374 0
    endloop
  endfacet
  facet normal 0 0 -1
    outer loop
      vertex 68 7.89488 0
      vertex 83 6 0
      vertex 83.573 4.23664 0
    endloop
  endfacet
  facet normal 0 0 -1
    outer loop
      vertex 83 6 0
      vertex 68 7.89488 0
      vertex 75.4417 13.3016 0
    endloop
  endfacet
  facet normal 0 0 -1
    outer loop
      vertex 59.5967 4.15351 0
      vertex 83.573 4.23664 0
      vertex 85.073 3.14683 0
    endloop
  endfacet
  facet normal 0 0 -1
    outer loop
      vertex 59.5967 4.15351 0
      vertex 85.073 3.14683 0
      vertex 92 0 0
    endloop
  endfacet
  facet normal -0 0 -1
    outer loop
      vertex 83.573 4.23664 0
      vertex 59.5967 4.15351 0
      vertex 68 7.89488 0
    endloop
  endfacet
  facet normal 0 0 -1
    outer loop
      vertex 92 0 0
      vertex 50.5993 2.24104 0
      vertex 59.5967 4.15351 0
    endloop
  endfacet
  facet normal 0 0 -1
    outer loop
      vertex 92 0 0
      vertex 41.4007 2.24104 0
      vertex 50.5993 2.24104 0
    endloop
  endfacet
  facet normal 0 0 -1
    outer loop
      vertex 8.42705 7.76336 0
      vertex 16.5583 13.3016 0
      vertex 9 6 0
    endloop
  endfacet
  facet normal -0 0 -1
    outer loop
      vertex 24 7.89488 0
      vertex 9 6 0
      vertex 16.5583 13.3016 0
    endloop
  endfacet
  facet normal 0 0 -1
    outer loop
      vertex 8.42705 4.23664 0
      vertex 24 7.89488 0
      vertex 32.4033 4.15351 0
    endloop
  endfacet
  facet normal 0 0 -1
    outer loop
      vertex 0 0 0
      vertex 32.4033 4.15351 0
      vertex 41.4007 2.24104 0
    endloop
  endfacet
  facet normal 0 0 -1
    outer loop
      vertex 24 7.89488 0
      vertex 8.42705 4.23664 0
      vertex 9 6 0
    endloop
  endfacet
  facet normal -0 0 -1
    outer loop
      vertex 32.4033 4.15351 0
      vertex 6.92705 3.14683 0
      vertex 8.42705 4.23664 0
    endloop
  endfacet
  facet normal 0 0 -1
    outer loop
      vertex 0 0 0
      vertex 41.4007 2.24104 0
      vertex 92 0 0
    endloop
  endfacet
  facet normal 0 0 -1
    outer loop
      vertex 32.4033 4.15351 0
      vertex 0 0 0
      vertex 6.92705 3.14683 0
    endloop
  endfacet
  facet normal -0 0 -1
    outer loop
      vertex 3.57295 7.76336 0
      vertex 0 0 0
      vertex 2.9615 36.8519 0
    endloop
  endfacet
  facet normal -0 0 -1
    outer loop
      vertex 2.9615 36.8519 0
      vertex 0 0 0
      vertex 2 46 0
    endloop
  endfacet
  facet normal -0 0 -1
    outer loop
      vertex 3.57295 4.23664 0
      vertex 0 0 0
      vertex 3 6 0
    endloop
  endfacet
  facet normal -0 0 -1
    outer loop
      vertex 5.07295 3.14683 0
      vertex 0 0 0
      vertex 3.57295 4.23664 0
    endloop
  endfacet
  facet normal -0 0 -1
    outer loop
      vertex 6.92705 3.14683 0
      vertex 0 0 0
      vertex 5.07295 3.14683 0
    endloop
  endfacet
  facet normal 0 0 -1
    outer loop
      vertex 89.0385 55.1481 0
      vertex 92 92 0
      vertex 90 46 0
    endloop
  endfacet
  facet normal 0 0 -1
    outer loop
      vertex 88.427 84.2366 0
      vertex 92 92 0
      vertex 89.0385 55.1481 0
    endloop
  endfacet
  facet normal 0 0 -1
    outer loop
      vertex 88.427 87.7634 0
      vertex 92 92 0
      vertex 89 86 0
    endloop
  endfacet
  facet normal 0 0 -1
    outer loop
      vertex 86.927 88.8532 0
      vertex 92 92 0
      vertex 88.427 87.7634 0
    endloop
  endfacet
  facet normal 0 0 -1
    outer loop
      vertex 85.073 88.8532 0
      vertex 92 92 0
      vertex 86.927 88.8532 0
    endloop
  endfacet
  facet normal -0 0 -1
    outer loop
      vertex 83.573 84.2366 0
      vertex 75.4417 78.6984 0
      vertex 83 86 0
    endloop
  endfacet
  facet normal 0 0 -1
    outer loop
      vertex 68 84.1051 0
      vertex 83 86 0
      vertex 75.4417 78.6984 0
    endloop
  endfacet
  facet normal -0 0 -1
    outer loop
      vertex 83 86 0
      vertex 68 84.1051 0
      vertex 83.573 87.7634 0
    endloop
  endfacet
  facet normal 0 0 -1
    outer loop
      vertex 59.5967 87.8465 0
      vertex 83.573 87.7634 0
      vertex 68 84.1051 0
    endloop
  endfacet
  facet normal 0 0 -1
    outer loop
      vertex 83.573 87.7634 0
      vertex 59.5967 87.8465 0
      vertex 85.073 88.8532 0
    endloop
  endfacet
  facet normal -0 0 -1
    outer loop
      vertex 85.073 88.8532 0
      vertex 59.5967 87.8465 0
      vertex 92 92 0
    endloop
  endfacet
  facet normal 0 0 -1
    outer loop
      vertex 50.5993 89.759 0
      vertex 92 92 0
      vertex 59.5967 87.8465 0
    endloop
  endfacet
  facet normal 0 0 -1
    outer loop
      vertex 41.4007 89.759 0
      vertex 92 92 0
      vertex 50.5993 89.759 0
    endloop
  endfacet
  facet normal 0 0 -1
    outer loop
      vertex 6.92705 83.1468 0
      vertex 16.5583 78.6984 0
      vertex 10.4033 71.8625 0
    endloop
  endfacet
  facet normal 0 0 -1
    outer loop
      vertex 9 86 0
      vertex 24 84.1051 0
      vertex 16.5583 78.6984 0
    endloop
  endfacet
  facet normal 0 0 -1
    outer loop
      vertex 8.42705 87.7634 0
      vertex 24 84.1051 0
      vertex 9 86 0
    endloop
  endfacet
  facet normal 0 0 -1
    outer loop
      vertex 24 84.1051 0
      vertex 8.42705 87.7634 0
      vertex 32.4033 87.8465 0
    endloop
  endfacet
  facet normal 0 0 -1
    outer loop
      vertex 6.92705 88.8532 0
      vertex 32.4033 87.8465 0
      vertex 8.42705 87.7634 0
    endloop
  endfacet
  facet normal 0 0 -1
    outer loop
      vertex 0 92 0
      vertex 32.4033 87.8465 0
      vertex 6.92705 88.8532 0
    endloop
  endfacet
  facet normal 0 0 -1
    outer loop
      vertex 32.4033 87.8465 0
      vertex 0 92 0
      vertex 41.4007 89.759 0
    endloop
  endfacet
  facet normal 0 0 -1
    outer loop
      vertex 0 92 0
      vertex 6.92705 88.8532 0
      vertex 5.07295 88.8532 0
    endloop
  endfacet
  facet normal 0 0 -1
    outer loop
      vertex 0 92 0
      vertex 2.9615 55.1481 0
      vertex 2 46 0
    endloop
  endfacet
  facet normal 0 0 -1
    outer loop
      vertex 0 92 0
      vertex 2 46 0
      vertex 0 0 0
    endloop
  endfacet
  facet normal 0 0 -1
    outer loop
      vertex 41.4007 89.759 0
      vertex 0 92 0
      vertex 92 92 0
    endloop
  endfacet
  facet normal 0 0 -1
    outer loop
      vertex 3.57295 87.7634 0
      vertex 0 92 0
      vertex 5.07295 88.8532 0
    endloop
  endfacet
  facet normal 0 0 -1
    outer loop
      vertex 3 86 0
      vertex 0 92 0
      vertex 3.57295 87.7634 0
    endloop
  endfacet
  facet normal 0 0 -1
    outer loop
      vertex 3.57295 84.2366 0
      vertex 0 92 0
      vertex 3 86 0
    endloop
  endfacet
  facet normal 0 0 -1
    outer loop
      vertex 92 0 0
      vertex 88.427 7.76336 0
      vertex 89.0385 36.8519 0
    endloop
  endfacet
  facet normal 0 0 -1
    outer loop
      vertex 86.196 28.1036 0
      vertex 88.427 7.76336 0
      vertex 86.927 8.85317 0
    endloop
  endfacet
  facet normal 0 0 -1
    outer loop
      vertex 88.427 7.76336 0
      vertex 86.196 28.1036 0
      vertex 89.0385 36.8519 0
    endloop
  endfacet
  facet normal 0 0 -1
    outer loop
      vertex 81.5967 20.1374 0
      vertex 86.927 8.85317 0
      vertex 85.073 8.85317 0
    endloop
  endfacet
  facet normal 0 0 -1
    outer loop
      vertex 75.4417 13.3016 0
      vertex 85.073 8.85317 0
      vertex 83.573 7.76336 0
    endloop
  endfacet
  facet normal 0 0 -1
    outer loop
      vertex 75.4417 13.3016 0
      vertex 83.573 7.76336 0
      vertex 83 6 0
    endloop
  endfacet
  facet normal 0 0 -1
    outer loop
      vertex 86.927 8.85317 0
      vertex 81.5967 20.1374 0
      vertex 86.196 28.1036 0
    endloop
  endfacet
  facet normal -1 0 0
    outer loop
      vertex 0 0 0
      vertex 0 92 3
      vertex 0 92 0
    endloop
  endfacet
  facet normal -1 -0 0
    outer loop
      vertex 0 92 3
      vertex 0 0 0
      vertex 0 0 3
    endloop
  endfacet
  facet normal 0 1 -0
    outer loop
      vertex 92 92 0
      vertex 0 92 3
      vertex 92 92 3
    endloop
  endfacet
  facet normal 0 1 0
    outer loop
      vertex 0 92 3
      vertex 92 92 0
      vertex 0 92 0
    endloop
  endfacet
  facet normal 0 -1 0
    outer loop
      vertex 0 0 0
      vertex 92 0 3
      vertex 0 0 3
    endloop
  endfacet
  facet normal 0 -1 -0
    outer loop
      vertex 92 0 3
      vertex 0 0 0
      vertex 92 0 0
    endloop
  endfacet
  facet normal -0.951056 -0.309017 0
    outer loop
      vertex 89.0385 55.1481 0
      vertex 86.196 63.8964 3
      vertex 86.196 63.8964 0
    endloop
  endfacet
  facet normal -0.951056 -0.309017 0
    outer loop
      vertex 86.196 63.8964 3
      vertex 89.0385 55.1481 0
      vertex 89.0385 55.1481 3
    endloop
  endfacet
  facet normal -0.994522 -0.104528 0
    outer loop
      vertex 90 46 0
      vertex 89.0385 55.1481 3
      vertex 89.0385 55.1481 0
    endloop
  endfacet
  facet normal -0.994522 -0.104528 0
    outer loop
      vertex 89.0385 55.1481 3
      vertex 90 46 0
      vertex 90 46 3
    endloop
  endfacet
  facet normal -0.866022 -0.500006 0
    outer loop
      vertex 86.196 63.8964 0
      vertex 81.5967 71.8625 3
      vertex 81.5967 71.8625 0
    endloop
  endfacet
  facet normal -0.866022 -0.500006 0
    outer loop
      vertex 81.5967 71.8625 3
      vertex 86.196 63.8964 0
      vertex 86.196 63.8964 3
    endloop
  endfacet
  facet normal 0.587786 0.809017 -0
    outer loop
      vertex 24 7.89488 0
      vertex 16.5583 13.3016 3
      vertex 24 7.89488 3
    endloop
  endfacet
  facet normal 0.587786 0.809017 0
    outer loop
      vertex 16.5583 13.3016 3
      vertex 24 7.89488 0
      vertex 16.5583 13.3016 0
    endloop
  endfacet
  facet normal 0.866025 0.500001 0
    outer loop
      vertex 10.4033 20.1374 3
      vertex 5.804 28.1036 0
      vertex 5.804 28.1036 3
    endloop
  endfacet
  facet normal 0.866025 0.500001 0
    outer loop
      vertex 5.804 28.1036 0
      vertex 10.4033 20.1374 3
      vertex 10.4033 20.1374 0
    endloop
  endfacet
  facet normal 0.994522 0.104528 0
    outer loop
      vertex 2.9615 36.8519 3
      vertex 2 46 0
      vertex 2 46 3
    endloop
  endfacet
  facet normal 0.994522 0.104528 0
    outer loop
      vertex 2 46 0
      vertex 2.9615 36.8519 3
      vertex 2.9615 36.8519 0
    endloop
  endfacet
  facet normal -0.994522 0.104528 0
    outer loop
      vertex 89.0385 36.8519 0
      vertex 90 46 3
      vertex 90 46 0
    endloop
  endfacet
  facet normal -0.994522 0.104528 0
    outer loop
      vertex 90 46 3
      vertex 89.0385 36.8519 0
      vertex 89.0385 36.8519 3
    endloop
  endfacet
  facet normal -0.207916 -0.978147 0
    outer loop
      vertex 50.5993 89.759 0
      vertex 59.5967 87.8465 3
      vertex 50.5993 89.759 3
    endloop
  endfacet
  facet normal -0.207916 -0.978147 -0
    outer loop
      vertex 59.5967 87.8465 3
      vertex 50.5993 89.759 0
      vertex 59.5967 87.8465 0
    endloop
  endfacet
  facet normal 0.207916 -0.978147 0
    outer loop
      vertex 32.4033 87.8465 0
      vertex 41.4007 89.759 3
      vertex 32.4033 87.8465 3
    endloop
  endfacet
  facet normal 0.207916 -0.978147 0
    outer loop
      vertex 41.4007 89.759 3
      vertex 32.4033 87.8465 0
      vertex 41.4007 89.759 0
    endloop
  endfacet
  facet normal -0.743149 -0.669126 0
    outer loop
      vertex 81.5967 71.8625 0
      vertex 75.4417 78.6984 3
      vertex 75.4417 78.6984 0
    endloop
  endfacet
  facet normal -0.743149 -0.669126 0
    outer loop
      vertex 75.4417 78.6984 3
      vertex 81.5967 71.8625 0
      vertex 81.5967 71.8625 3
    endloop
  endfacet
  facet normal 0.866022 -0.500006 0
    outer loop
      vertex 5.804 63.8964 3
      vertex 10.4033 71.8625 0
      vertex 10.4033 71.8625 3
    endloop
  endfacet
  facet normal 0.866022 -0.500006 0
    outer loop
      vertex 10.4033 71.8625 0
      vertex 5.804 63.8964 3
      vertex 5.804 63.8964 0
    endloop
  endfacet
  facet normal 0.207913 0.978147 -0
    outer loop
      vertex 41.4007 2.24104 0
      vertex 32.4033 4.15351 3
      vertex 41.4007 2.24104 3
    endloop
  endfacet
  facet normal 0.207913 0.978147 0
    outer loop
      vertex 32.4033 4.15351 3
      vertex 41.4007 2.24104 0
      vertex 32.4033 4.15351 0
    endloop
  endfacet
  facet normal -0.951056 0.309017 0
    outer loop
      vertex 86.196 28.1036 0
      vertex 89.0385 36.8519 3
      vertex 89.0385 36.8519 0
    endloop
  endfacet
  facet normal -0.951056 0.309017 0
    outer loop
      vertex 89.0385 36.8519 3
      vertex 86.196 28.1036 0
      vertex 86.196 28.1036 3
    endloop
  endfacet
  facet normal 0 -1 0
    outer loop
      vertex 41.4007 89.759 0
      vertex 50.5993 89.759 3
      vertex 41.4007 89.759 3
    endloop
  endfacet
  facet normal 0 -1 -0
    outer loop
      vertex 50.5993 89.759 3
      vertex 41.4007 89.759 0
      vertex 50.5993 89.759 0
    endloop
  endfacet
  facet normal 0.406735 0.913546 -0
    outer loop
      vertex 32.4033 4.15351 0
      vertex 24 7.89488 3
      vertex 32.4033 4.15351 3
    endloop
  endfacet
  facet normal 0.406735 0.913546 0
    outer loop
      vertex 24 7.89488 3
      vertex 32.4033 4.15351 0
      vertex 24 7.89488 0
    endloop
  endfacet
  facet normal 0.587784 -0.809018 0
    outer loop
      vertex 16.5583 78.6984 0
      vertex 24 84.1051 3
      vertex 16.5583 78.6984 3
    endloop
  endfacet
  facet normal 0.587784 -0.809018 0
    outer loop
      vertex 24 84.1051 3
      vertex 16.5583 78.6984 0
      vertex 24 84.1051 0
    endloop
  endfacet
  facet normal -0.207913 0.978147 0
    outer loop
      vertex 59.5967 4.15351 0
      vertex 50.5993 2.24104 3
      vertex 59.5967 4.15351 3
    endloop
  endfacet
  facet normal -0.207913 0.978147 0
    outer loop
      vertex 50.5993 2.24104 3
      vertex 59.5967 4.15351 0
      vertex 50.5993 2.24104 0
    endloop
  endfacet
  facet normal 0 1 -0
    outer loop
      vertex 50.5993 2.24104 0
      vertex 41.4007 2.24104 3
      vertex 50.5993 2.24104 3
    endloop
  endfacet
  facet normal 0 1 0
    outer loop
      vertex 41.4007 2.24104 3
      vertex 50.5993 2.24104 0
      vertex 41.4007 2.24104 0
    endloop
  endfacet
  facet normal 0.743144 0.669132 0
    outer loop
      vertex 16.5583 13.3016 3
      vertex 10.4033 20.1374 0
      vertex 10.4033 20.1374 3
    endloop
  endfacet
  facet normal 0.743144 0.669132 0
    outer loop
      vertex 10.4033 20.1374 0
      vertex 16.5583 13.3016 3
      vertex 16.5583 13.3016 0
    endloop
  endfacet
  facet normal -0.587784 -0.809018 0
    outer loop
      vertex 68 84.1051 0
      vertex 75.4417 78.6984 3
      vertex 68 84.1051 3
    endloop
  endfacet
  facet normal -0.587784 -0.809018 -0
    outer loop
      vertex 75.4417 78.6984 3
      vertex 68 84.1051 0
      vertex 75.4417 78.6984 0
    endloop
  endfacet
  facet normal 0.406738 -0.913545 0
    outer loop
      vertex 24 84.1051 0
      vertex 32.4033 87.8465 3
      vertex 24 84.1051 3
    endloop
  endfacet
  facet normal 0.406738 -0.913545 0
    outer loop
      vertex 32.4033 87.8465 3
      vertex 24 84.1051 0
      vertex 32.4033 87.8465 0
    endloop
  endfacet
  facet normal -0.406738 -0.913545 0
    outer loop
      vertex 59.5967 87.8465 0
      vertex 68 84.1051 3
      vertex 59.5967 87.8465 3
    endloop
  endfacet
  facet normal -0.406738 -0.913545 -0
    outer loop
      vertex 68 84.1051 3
      vertex 59.5967 87.8465 0
      vertex 68 84.1051 0
    endloop
  endfacet
  facet normal 0.743149 -0.669126 0
    outer loop
      vertex 10.4033 71.8625 3
      vertex 16.5583 78.6984 0
      vertex 16.5583 78.6984 3
    endloop
  endfacet
  facet normal 0.743149 -0.669126 0
    outer loop
      vertex 16.5583 78.6984 0
      vertex 10.4033 71.8625 3
      vertex 10.4033 71.8625 0
    endloop
  endfacet
  facet normal 0.951056 -0.309017 0
    outer loop
      vertex 2.9615 55.1481 3
      vertex 5.804 63.8964 0
      vertex 5.804 63.8964 3
    endloop
  endfacet
  facet normal 0.951056 -0.309017 0
    outer loop
      vertex 5.804 63.8964 0
      vertex 2.9615 55.1481 3
      vertex 2.9615 55.1481 0
    endloop
  endfacet
  facet normal -0.743144 0.669132 0
    outer loop
      vertex 75.4417 13.3016 0
      vertex 81.5967 20.1374 3
      vertex 81.5967 20.1374 0
    endloop
  endfacet
  facet normal -0.743144 0.669132 0
    outer loop
      vertex 81.5967 20.1374 3
      vertex 75.4417 13.3016 0
      vertex 75.4417 13.3016 3
    endloop
  endfacet
  facet normal -0.866025 0.500001 0
    outer loop
      vertex 81.5967 20.1374 0
      vertex 86.196 28.1036 3
      vertex 86.196 28.1036 0
    endloop
  endfacet
  facet normal -0.866025 0.500001 0
    outer loop
      vertex 86.196 28.1036 3
      vertex 81.5967 20.1374 0
      vertex 81.5967 20.1374 3
    endloop
  endfacet
  facet normal -0.406735 0.913546 0
    outer loop
      vertex 68 7.89488 0
      vertex 59.5967 4.15351 3
      vertex 68 7.89488 3
    endloop
  endfacet
  facet normal -0.406735 0.913546 0
    outer loop
      vertex 59.5967 4.15351 3
      vertex 68 7.89488 0
      vertex 59.5967 4.15351 0
    endloop
  endfacet
  facet normal -0.587786 0.809017 0
    outer loop
      vertex 75.4417 13.3016 0
      vertex 68 7.89488 3
      vertex 75.4417 13.3016 3
    endloop
  endfacet
  facet normal -0.587786 0.809017 0
    outer loop
      vertex 68 7.89488 3
      vertex 75.4417 13.3016 0
      vertex 68 7.89488 0
    endloop
  endfacet
  facet normal 0.951056 0.309017 0
    outer loop
      vertex 5.804 28.1036 3
      vertex 2.9615 36.8519 0
      vertex 2.9615 36.8519 3
    endloop
  endfacet
  facet normal 0.951056 0.309017 0
    outer loop
      vertex 2.9615 36.8519 0
      vertex 5.804 28.1036 3
      vertex 5.804 28.1036 0
    endloop
  endfacet
  facet normal 0.994522 -0.104528 0
    outer loop
      vertex 2 46 3
      vertex 2.9615 55.1481 0
      vertex 2.9615 55.1481 3
    endloop
  endfacet
  facet normal 0.994522 -0.104528 0
    outer loop
      vertex 2.9615 55.1481 0
      vertex 2 46 3
      vertex 2 46 0
    endloop
  endfacet
endsolid OpenSCAD_Model
